<svg width="140" height="25" viewBox="0 0 140 25" fill="none" xmlns="http://www.w3.org/2000/svg">
<path d="M6.48633 8.62891V10H1.94531V8.62891H6.48633ZM2.51953 1.46875V10H0.761719V1.46875H2.51953ZM5.89453 4.94336V6.2793H1.94531V4.94336H5.89453ZM6.48047 1.46875V2.8457H1.94531V1.46875H6.48047ZM9.05859 5.01367V10H7.37109V3.66016H8.95312L9.05859 5.01367ZM8.8125 6.60742H8.35547C8.35547 6.13867 8.41602 5.7168 8.53711 5.3418C8.6582 4.96289 8.82812 4.64062 9.04688 4.375C9.26562 4.10547 9.52539 3.90039 9.82617 3.75977C10.1309 3.61523 10.4707 3.54297 10.8457 3.54297C11.1426 3.54297 11.4141 3.58594 11.6602 3.67188C11.9062 3.75781 12.1172 3.89453 12.293 4.08203C12.4727 4.26953 12.6094 4.51758 12.7031 4.82617C12.8008 5.13477 12.8496 5.51172 12.8496 5.95703V10H11.1504V5.95117C11.1504 5.66992 11.1113 5.45117 11.0332 5.29492C10.9551 5.13867 10.8398 5.0293 10.6875 4.9668C10.5391 4.90039 10.3555 4.86719 10.1367 4.86719C9.91016 4.86719 9.71289 4.91211 9.54492 5.00195C9.38086 5.0918 9.24414 5.2168 9.13477 5.37695C9.0293 5.5332 8.94922 5.7168 8.89453 5.92773C8.83984 6.13867 8.8125 6.36523 8.8125 6.60742ZM18.1465 3.66016H19.6758V9.78906C19.6758 10.3672 19.5469 10.8574 19.2891 11.2598C19.0352 11.666 18.6797 11.9727 18.2227 12.1797C17.7656 12.3906 17.2344 12.4961 16.6289 12.4961C16.3633 12.4961 16.082 12.4609 15.7852 12.3906C15.4922 12.3203 15.2109 12.2109 14.9414 12.0625C14.6758 11.9141 14.4531 11.7266 14.2734 11.5L15.0176 10.5039C15.2129 10.7305 15.4395 10.9062 15.6973 11.0312C15.9551 11.1602 16.2402 11.2246 16.5527 11.2246C16.8574 11.2246 17.1152 11.168 17.3262 11.0547C17.5371 10.9453 17.6992 10.7832 17.8125 10.5684C17.9258 10.3574 17.9824 10.1016 17.9824 9.80078V5.125L18.1465 3.66016ZM13.8809 6.90625V6.7832C13.8809 6.29883 13.9395 5.85938 14.0566 5.46484C14.1777 5.06641 14.3477 4.72461 14.5664 4.43945C14.7891 4.1543 15.0586 3.93359 15.375 3.77734C15.6914 3.62109 16.0488 3.54297 16.4473 3.54297C16.8691 3.54297 17.2227 3.62109 17.5078 3.77734C17.793 3.93359 18.0273 4.15625 18.2109 4.44531C18.3945 4.73047 18.5371 5.06836 18.6387 5.45898C18.7441 5.8457 18.8262 6.26953 18.8848 6.73047V7C18.8262 7.44141 18.7383 7.85156 18.6211 8.23047C18.5039 8.60938 18.3496 8.94141 18.1582 9.22656C17.9668 9.50781 17.7285 9.72656 17.4434 9.88281C17.1621 10.0391 16.8262 10.1172 16.4355 10.1172C16.0449 10.1172 15.6914 10.0371 15.375 9.87695C15.0625 9.7168 14.7949 9.49219 14.5723 9.20312C14.3496 8.91406 14.1777 8.57422 14.0566 8.18359C13.9395 7.79297 13.8809 7.36719 13.8809 6.90625ZM15.5684 6.7832V6.90625C15.5684 7.16797 15.5938 7.41211 15.6445 7.63867C15.6953 7.86523 15.7734 8.06641 15.8789 8.24219C15.9883 8.41406 16.123 8.54883 16.2832 8.64648C16.4473 8.74023 16.6406 8.78711 16.8633 8.78711C17.1719 8.78711 17.4238 8.72266 17.6191 8.59375C17.8145 8.46094 17.9609 8.2793 18.0586 8.04883C18.1562 7.81836 18.2129 7.55273 18.2285 7.25195V6.48438C18.2207 6.23828 18.1875 6.01758 18.1289 5.82227C18.0703 5.62305 17.9883 5.45312 17.8828 5.3125C17.7773 5.17188 17.6406 5.0625 17.4727 4.98438C17.3047 4.90625 17.1055 4.86719 16.875 4.86719C16.6523 4.86719 16.459 4.91797 16.2949 5.01953C16.1348 5.11719 16 5.25195 15.8906 5.42383C15.7852 5.5957 15.7051 5.79883 15.6504 6.0332C15.5957 6.26367 15.5684 6.51367 15.5684 6.7832ZM22.7695 3.66016V10H21.0762V3.66016H22.7695ZM20.9707 2.00781C20.9707 1.76172 21.0566 1.55859 21.2285 1.39844C21.4004 1.23828 21.6309 1.1582 21.9199 1.1582C22.2051 1.1582 22.4336 1.23828 22.6055 1.39844C22.7812 1.55859 22.8691 1.76172 22.8691 2.00781C22.8691 2.25391 22.7812 2.45703 22.6055 2.61719C22.4336 2.77734 22.2051 2.85742 21.9199 2.85742C21.6309 2.85742 21.4004 2.77734 21.2285 2.61719C21.0566 2.45703 20.9707 2.25391 20.9707 2.00781ZM25.8164 5.01367V10H24.1289V3.66016H25.7109L25.8164 5.01367ZM25.5703 6.60742H25.1133C25.1133 6.13867 25.1738 5.7168 25.2949 5.3418C25.416 4.96289 25.5859 4.64062 25.8047 4.375C26.0234 4.10547 26.2832 3.90039 26.584 3.75977C26.8887 3.61523 27.2285 3.54297 27.6035 3.54297C27.9004 3.54297 28.1719 3.58594 28.418 3.67188C28.6641 3.75781 28.875 3.89453 29.0508 4.08203C29.2305 4.26953 29.3672 4.51758 29.4609 4.82617C29.5586 5.13477 29.6074 5.51172 29.6074 5.95703V10H27.9082V5.95117C27.9082 5.66992 27.8691 5.45117 27.791 5.29492C27.7129 5.13867 27.5977 5.0293 27.4453 4.9668C27.2969 4.90039 27.1133 4.86719 26.8945 4.86719C26.668 4.86719 26.4707 4.91211 26.3027 5.00195C26.1387 5.0918 26.002 5.2168 25.8926 5.37695C25.7871 5.5332 25.707 5.7168 25.6523 5.92773C25.5977 6.13867 25.5703 6.36523 25.5703 6.60742ZM33.8086 10.1172C33.3164 10.1172 32.875 10.0391 32.4844 9.88281C32.0938 9.72266 31.7617 9.50195 31.4883 9.2207C31.2188 8.93945 31.0117 8.61328 30.8672 8.24219C30.7227 7.86719 30.6504 7.46875 30.6504 7.04688V6.8125C30.6504 6.33203 30.7188 5.89258 30.8555 5.49414C30.9922 5.0957 31.1875 4.75 31.4414 4.45703C31.6992 4.16406 32.0117 3.93945 32.3789 3.7832C32.7461 3.62305 33.1602 3.54297 33.6211 3.54297C34.0703 3.54297 34.4688 3.61719 34.8164 3.76562C35.1641 3.91406 35.4551 4.125 35.6895 4.39844C35.9277 4.67188 36.1074 5 36.2285 5.38281C36.3496 5.76172 36.4102 6.18359 36.4102 6.64844V7.35156H31.3711V6.22656H34.752V6.09766C34.752 5.86328 34.709 5.6543 34.623 5.4707C34.541 5.2832 34.416 5.13477 34.248 5.02539C34.0801 4.91602 33.8652 4.86133 33.6035 4.86133C33.3809 4.86133 33.1895 4.91016 33.0293 5.00781C32.8691 5.10547 32.7383 5.24219 32.6367 5.41797C32.5391 5.59375 32.4648 5.80078 32.4141 6.03906C32.3672 6.27344 32.3438 6.53125 32.3438 6.8125V7.04688C32.3438 7.30078 32.3789 7.53516 32.4492 7.75C32.5234 7.96484 32.627 8.15039 32.7598 8.30664C32.8965 8.46289 33.0605 8.58398 33.252 8.66992C33.4473 8.75586 33.668 8.79883 33.9141 8.79883C34.2188 8.79883 34.502 8.74023 34.7637 8.62305C35.0293 8.50195 35.2578 8.32031 35.4492 8.07812L36.2695 8.96875C36.1367 9.16016 35.9551 9.34375 35.7246 9.51953C35.498 9.69531 35.2246 9.83984 34.9043 9.95312C34.584 10.0625 34.2188 10.1172 33.8086 10.1172ZM40.2891 10.1172C39.7969 10.1172 39.3555 10.0391 38.9648 9.88281C38.5742 9.72266 38.2422 9.50195 37.9688 9.2207C37.6992 8.93945 37.4922 8.61328 37.3477 8.24219C37.2031 7.86719 37.1309 7.46875 37.1309 7.04688V6.8125C37.1309 6.33203 37.1992 5.89258 37.3359 5.49414C37.4727 5.0957 37.668 4.75 37.9219 4.45703C38.1797 4.16406 38.4922 3.93945 38.8594 3.7832C39.2266 3.62305 39.6406 3.54297 40.1016 3.54297C40.5508 3.54297 40.9492 3.61719 41.2969 3.76562C41.6445 3.91406 41.9355 4.125 42.1699 4.39844C42.4082 4.67188 42.5879 5 42.709 5.38281C42.8301 5.76172 42.8906 6.18359 42.8906 6.64844V7.35156H37.8516V6.22656H41.2324V6.09766C41.2324 5.86328 41.1895 5.6543 41.1035 5.4707C41.0215 5.2832 40.8965 5.13477 40.7285 5.02539C40.5605 4.91602 40.3457 4.86133 40.084 4.86133C39.8613 4.86133 39.6699 4.91016 39.5098 5.00781C39.3496 5.10547 39.2188 5.24219 39.1172 5.41797C39.0195 5.59375 38.9453 5.80078 38.8945 6.03906C38.8477 6.27344 38.8242 6.53125 38.8242 6.8125V7.04688C38.8242 7.30078 38.8594 7.53516 38.9297 7.75C39.0039 7.96484 39.1074 8.15039 39.2402 8.30664C39.377 8.46289 39.541 8.58398 39.7324 8.66992C39.9277 8.75586 40.1484 8.79883 40.3945 8.79883C40.6992 8.79883 40.9824 8.74023 41.2441 8.62305C41.5098 8.50195 41.7383 8.32031 41.9297 8.07812L42.75 8.96875C42.6172 9.16016 42.4355 9.34375 42.2051 9.51953C41.9785 9.69531 41.7051 9.83984 41.3848 9.95312C41.0645 10.0625 40.6992 10.1172 40.2891 10.1172ZM45.5391 5.04297V10H43.8516V3.66016H45.4395L45.5391 5.04297ZM47.4492 3.61914L47.4199 5.18359C47.3379 5.17188 47.2383 5.16211 47.1211 5.1543C47.0078 5.14258 46.9043 5.13672 46.8105 5.13672C46.5723 5.13672 46.3652 5.16797 46.1895 5.23047C46.0176 5.28906 45.873 5.37695 45.7559 5.49414C45.6426 5.61133 45.5566 5.75391 45.498 5.92188C45.4434 6.08984 45.4121 6.28125 45.4043 6.49609L45.0645 6.39062C45.0645 5.98047 45.1055 5.60352 45.1875 5.25977C45.2695 4.91211 45.3887 4.60938 45.5449 4.35156C45.7051 4.09375 45.9004 3.89453 46.1309 3.75391C46.3613 3.61328 46.625 3.54297 46.9219 3.54297C47.0156 3.54297 47.1113 3.55078 47.209 3.56641C47.3066 3.57812 47.3867 3.5957 47.4492 3.61914ZM50.0273 3.66016V10H48.334V3.66016H50.0273ZM48.2285 2.00781C48.2285 1.76172 48.3145 1.55859 48.4863 1.39844C48.6582 1.23828 48.8887 1.1582 49.1777 1.1582C49.4629 1.1582 49.6914 1.23828 49.8633 1.39844C50.0391 1.55859 50.127 1.76172 50.127 2.00781C50.127 2.25391 50.0391 2.45703 49.8633 2.61719C49.6914 2.77734 49.4629 2.85742 49.1777 2.85742C48.8887 2.85742 48.6582 2.77734 48.4863 2.61719C48.3145 2.45703 48.2285 2.25391 48.2285 2.00781ZM53.0742 5.01367V10H51.3867V3.66016H52.9688L53.0742 5.01367ZM52.8281 6.60742H52.3711C52.3711 6.13867 52.4316 5.7168 52.5527 5.3418C52.6738 4.96289 52.8438 4.64062 53.0625 4.375C53.2812 4.10547 53.541 3.90039 53.8418 3.75977C54.1465 3.61523 54.4863 3.54297 54.8613 3.54297C55.1582 3.54297 55.4297 3.58594 55.6758 3.67188C55.9219 3.75781 56.1328 3.89453 56.3086 4.08203C56.4883 4.26953 56.625 4.51758 56.7188 4.82617C56.8164 5.13477 56.8652 5.51172 56.8652 5.95703V10H55.166V5.95117C55.166 5.66992 55.127 5.45117 55.0488 5.29492C54.9707 5.13867 54.8555 5.0293 54.7031 4.9668C54.5547 4.90039 54.3711 4.86719 54.1523 4.86719C53.9258 4.86719 53.7285 4.91211 53.5605 5.00195C53.3965 5.0918 53.2598 5.2168 53.1504 5.37695C53.0449 5.5332 52.9648 5.7168 52.9102 5.92773C52.8555 6.13867 52.8281 6.36523 52.8281 6.60742ZM62.1621 3.66016H63.6914V9.78906C63.6914 10.3672 63.5625 10.8574 63.3047 11.2598C63.0508 11.666 62.6953 11.9727 62.2383 12.1797C61.7812 12.3906 61.25 12.4961 60.6445 12.4961C60.3789 12.4961 60.0977 12.4609 59.8008 12.3906C59.5078 12.3203 59.2266 12.2109 58.957 12.0625C58.6914 11.9141 58.4688 11.7266 58.2891 11.5L59.0332 10.5039C59.2285 10.7305 59.4551 10.9062 59.7129 11.0312C59.9707 11.1602 60.2559 11.2246 60.5684 11.2246C60.873 11.2246 61.1309 11.168 61.3418 11.0547C61.5527 10.9453 61.7148 10.7832 61.8281 10.5684C61.9414 10.3574 61.998 10.1016 61.998 9.80078V5.125L62.1621 3.66016ZM57.8965 6.90625V6.7832C57.8965 6.29883 57.9551 5.85938 58.0723 5.46484C58.1934 5.06641 58.3633 4.72461 58.582 4.43945C58.8047 4.1543 59.0742 3.93359 59.3906 3.77734C59.707 3.62109 60.0645 3.54297 60.4629 3.54297C60.8848 3.54297 61.2383 3.62109 61.5234 3.77734C61.8086 3.93359 62.043 4.15625 62.2266 4.44531C62.4102 4.73047 62.5527 5.06836 62.6543 5.45898C62.7598 5.8457 62.8418 6.26953 62.9004 6.73047V7C62.8418 7.44141 62.7539 7.85156 62.6367 8.23047C62.5195 8.60938 62.3652 8.94141 62.1738 9.22656C61.9824 9.50781 61.7441 9.72656 61.459 9.88281C61.1777 10.0391 60.8418 10.1172 60.4512 10.1172C60.0605 10.1172 59.707 10.0371 59.3906 9.87695C59.0781 9.7168 58.8105 9.49219 58.5879 9.20312C58.3652 8.91406 58.1934 8.57422 58.0723 8.18359C57.9551 7.79297 57.8965 7.36719 57.8965 6.90625ZM59.584 6.7832V6.90625C59.584 7.16797 59.6094 7.41211 59.6602 7.63867C59.7109 7.86523 59.7891 8.06641 59.8945 8.24219C60.0039 8.41406 60.1387 8.54883 60.2988 8.64648C60.4629 8.74023 60.6562 8.78711 60.8789 8.78711C61.1875 8.78711 61.4395 8.72266 61.6348 8.59375C61.8301 8.46094 61.9766 8.2793 62.0742 8.04883C62.1719 7.81836 62.2285 7.55273 62.2441 7.25195V6.48438C62.2363 6.23828 62.2031 6.01758 62.1445 5.82227C62.0859 5.62305 62.0039 5.45312 61.8984 5.3125C61.793 5.17188 61.6562 5.0625 61.4883 4.98438C61.3203 4.90625 61.1211 4.86719 60.8906 4.86719C60.668 4.86719 60.4746 4.91797 60.3105 5.01953C60.1504 5.11719 60.0156 5.25195 59.9062 5.42383C59.8008 5.5957 59.7207 5.79883 59.666 6.0332C59.6113 6.26367 59.584 6.51367 59.584 6.7832ZM73.8223 8.62891V10H69.2812V8.62891H73.8223ZM69.8555 1.46875V10H68.0977V1.46875H69.8555ZM73.2305 4.94336V6.2793H69.2812V4.94336H73.2305ZM73.8164 1.46875V2.8457H69.2812V1.46875H73.8164ZM76.7871 10H75.0879V3.09766C75.0879 2.61719 75.1816 2.21289 75.3691 1.88477C75.5605 1.55273 75.8281 1.30273 76.1719 1.13477C76.5195 0.962891 76.9316 0.876953 77.4082 0.876953C77.5645 0.876953 77.7148 0.888672 77.8594 0.912109C78.0039 0.931641 78.1445 0.957031 78.2812 0.988281L78.2637 2.25977C78.1895 2.24023 78.1113 2.22656 78.0293 2.21875C77.9473 2.21094 77.8516 2.20703 77.7422 2.20703C77.5391 2.20703 77.3652 2.24219 77.2207 2.3125C77.0801 2.37891 76.9727 2.47852 76.8984 2.61133C76.8242 2.74414 76.7871 2.90625 76.7871 3.09766V10ZM78.0527 3.66016V4.85547H74.1445V3.66016H78.0527ZM81.0879 10H79.3887V3.09766C79.3887 2.61719 79.4824 2.21289 79.6699 1.88477C79.8613 1.55273 80.1289 1.30273 80.4727 1.13477C80.8203 0.962891 81.2324 0.876953 81.709 0.876953C81.8652 0.876953 82.0156 0.888672 82.1602 0.912109C82.3047 0.931641 82.4453 0.957031 82.582 0.988281L82.5645 2.25977C82.4902 2.24023 82.4121 2.22656 82.3301 2.21875C82.248 2.21094 82.1523 2.20703 82.043 2.20703C81.8398 2.20703 81.666 2.24219 81.5215 2.3125C81.3809 2.37891 81.2734 2.47852 81.1992 2.61133C81.125 2.74414 81.0879 2.90625 81.0879 3.09766V10ZM82.3535 3.66016V4.85547H78.4453V3.66016H82.3535ZM86.0156 10.1172C85.5234 10.1172 85.082 10.0391 84.6914 9.88281C84.3008 9.72266 83.9688 9.50195 83.6953 9.2207C83.4258 8.93945 83.2188 8.61328 83.0742 8.24219C82.9297 7.86719 82.8574 7.46875 82.8574 7.04688V6.8125C82.8574 6.33203 82.9258 5.89258 83.0625 5.49414C83.1992 5.0957 83.3945 4.75 83.6484 4.45703C83.9062 4.16406 84.2188 3.93945 84.5859 3.7832C84.9531 3.62305 85.3672 3.54297 85.8281 3.54297C86.2773 3.54297 86.6758 3.61719 87.0234 3.76562C87.3711 3.91406 87.6621 4.125 87.8965 4.39844C88.1348 4.67188 88.3145 5 88.4355 5.38281C88.5566 5.76172 88.6172 6.18359 88.6172 6.64844V7.35156H83.5781V6.22656H86.959V6.09766C86.959 5.86328 86.916 5.6543 86.8301 5.4707C86.748 5.2832 86.623 5.13477 86.4551 5.02539C86.2871 4.91602 86.0723 4.86133 85.8105 4.86133C85.5879 4.86133 85.3965 4.91016 85.2363 5.00781C85.0762 5.10547 84.9453 5.24219 84.8438 5.41797C84.7461 5.59375 84.6719 5.80078 84.6211 6.03906C84.5742 6.27344 84.5508 6.53125 84.5508 6.8125V7.04688C84.5508 7.30078 84.5859 7.53516 84.6562 7.75C84.7305 7.96484 84.834 8.15039 84.9668 8.30664C85.1035 8.46289 85.2676 8.58398 85.459 8.66992C85.6543 8.75586 85.875 8.79883 86.1211 8.79883C86.4258 8.79883 86.709 8.74023 86.9707 8.62305C87.2363 8.50195 87.4648 8.32031 87.6562 8.07812L88.4766 8.96875C88.3438 9.16016 88.1621 9.34375 87.9316 9.51953C87.7051 9.69531 87.4316 9.83984 87.1113 9.95312C86.791 10.0625 86.4258 10.1172 86.0156 10.1172ZM92.1973 8.79883C92.4043 8.79883 92.5879 8.75977 92.748 8.68164C92.9082 8.59961 93.0332 8.48633 93.123 8.3418C93.2168 8.19336 93.2656 8.01953 93.2695 7.82031H94.8574C94.8535 8.26562 94.7344 8.66211 94.5 9.00977C94.2656 9.35352 93.9512 9.625 93.5566 9.82422C93.1621 10.0195 92.7207 10.1172 92.2324 10.1172C91.7402 10.1172 91.3105 10.0352 90.9434 9.87109C90.5801 9.70703 90.2773 9.48047 90.0352 9.19141C89.793 8.89844 89.6113 8.55859 89.4902 8.17188C89.3691 7.78125 89.3086 7.36328 89.3086 6.91797V6.74805C89.3086 6.29883 89.3691 5.88086 89.4902 5.49414C89.6113 5.10352 89.793 4.76367 90.0352 4.47461C90.2773 4.18164 90.5801 3.95312 90.9434 3.78906C91.3066 3.625 91.7324 3.54297 92.2207 3.54297C92.7402 3.54297 93.1953 3.64258 93.5859 3.8418C93.9805 4.04102 94.2891 4.32617 94.5117 4.69727C94.7383 5.06445 94.8535 5.5 94.8574 6.00391H93.2695C93.2656 5.79297 93.2207 5.60156 93.1348 5.42969C93.0527 5.25781 92.9316 5.12109 92.7715 5.01953C92.6152 4.91406 92.4219 4.86133 92.1914 4.86133C91.9453 4.86133 91.7441 4.91406 91.5879 5.01953C91.4316 5.12109 91.3105 5.26172 91.2246 5.44141C91.1387 5.61719 91.0781 5.81836 91.043 6.04492C91.0117 6.26758 90.9961 6.50195 90.9961 6.74805V6.91797C90.9961 7.16406 91.0117 7.40039 91.043 7.62695C91.0742 7.85352 91.1328 8.05469 91.2188 8.23047C91.3086 8.40625 91.4316 8.54492 91.5879 8.64648C91.7441 8.74805 91.9473 8.79883 92.1973 8.79883ZM98.9414 3.66016V4.85547H95.25V3.66016H98.9414ZM96.1641 2.0957H97.8516V8.08984C97.8516 8.27344 97.875 8.41406 97.9219 8.51172C97.9727 8.60938 98.0469 8.67773 98.1445 8.7168C98.2422 8.75195 98.3652 8.76953 98.5137 8.76953C98.6191 8.76953 98.7129 8.76562 98.7949 8.75781C98.8809 8.74609 98.9531 8.73438 99.0117 8.72266L99.0176 9.96484C98.873 10.0117 98.7168 10.0488 98.5488 10.0762C98.3809 10.1035 98.1953 10.1172 97.9922 10.1172C97.6211 10.1172 97.2969 10.0566 97.0195 9.93555C96.7461 9.81055 96.5352 9.61133 96.3867 9.33789C96.2383 9.06445 96.1641 8.70508 96.1641 8.25977V2.0957ZM101.684 3.66016V10H99.9902V3.66016H101.684ZM99.8848 2.00781C99.8848 1.76172 99.9707 1.55859 100.143 1.39844C100.314 1.23828 100.545 1.1582 100.834 1.1582C101.119 1.1582 101.348 1.23828 101.52 1.39844C101.695 1.55859 101.783 1.76172 101.783 2.00781C101.783 2.25391 101.695 2.45703 101.52 2.61719C101.348 2.77734 101.119 2.85742 100.834 2.85742C100.545 2.85742 100.314 2.77734 100.143 2.61719C99.9707 2.45703 99.8848 2.25391 99.8848 2.00781ZM105.234 8.76953L106.641 3.66016H108.404L106.266 10H105.199L105.234 8.76953ZM104.268 3.66016L105.68 8.77539L105.709 10H104.637L102.498 3.66016H104.268ZM111.996 10.1172C111.504 10.1172 111.062 10.0391 110.672 9.88281C110.281 9.72266 109.949 9.50195 109.676 9.2207C109.406 8.93945 109.199 8.61328 109.055 8.24219C108.91 7.86719 108.838 7.46875 108.838 7.04688V6.8125C108.838 6.33203 108.906 5.89258 109.043 5.49414C109.18 5.0957 109.375 4.75 109.629 4.45703C109.887 4.16406 110.199 3.93945 110.566 3.7832C110.934 3.62305 111.348 3.54297 111.809 3.54297C112.258 3.54297 112.656 3.61719 113.004 3.76562C113.352 3.91406 113.643 4.125 113.877 4.39844C114.115 4.67188 114.295 5 114.416 5.38281C114.537 5.76172 114.598 6.18359 114.598 6.64844V7.35156H109.559V6.22656H112.939V6.09766C112.939 5.86328 112.896 5.6543 112.811 5.4707C112.729 5.2832 112.604 5.13477 112.436 5.02539C112.268 4.91602 112.053 4.86133 111.791 4.86133C111.568 4.86133 111.377 4.91016 111.217 5.00781C111.057 5.10547 110.926 5.24219 110.824 5.41797C110.727 5.59375 110.652 5.80078 110.602 6.03906C110.555 6.27344 110.531 6.53125 110.531 6.8125V7.04688C110.531 7.30078 110.566 7.53516 110.637 7.75C110.711 7.96484 110.814 8.15039 110.947 8.30664C111.084 8.46289 111.248 8.58398 111.439 8.66992C111.635 8.75586 111.855 8.79883 112.102 8.79883C112.406 8.79883 112.689 8.74023 112.951 8.62305C113.217 8.50195 113.445 8.32031 113.637 8.07812L114.457 8.96875C114.324 9.16016 114.143 9.34375 113.912 9.51953C113.686 9.69531 113.412 9.83984 113.092 9.95312C112.771 10.0625 112.406 10.1172 111.996 10.1172ZM117.211 5.01367V10H115.523V3.66016H117.105L117.211 5.01367ZM116.965 6.60742H116.508C116.508 6.13867 116.568 5.7168 116.689 5.3418C116.811 4.96289 116.98 4.64062 117.199 4.375C117.418 4.10547 117.678 3.90039 117.979 3.75977C118.283 3.61523 118.623 3.54297 118.998 3.54297C119.295 3.54297 119.566 3.58594 119.812 3.67188C120.059 3.75781 120.27 3.89453 120.445 4.08203C120.625 4.26953 120.762 4.51758 120.855 4.82617C120.953 5.13477 121.002 5.51172 121.002 5.95703V10H119.303V5.95117C119.303 5.66992 119.264 5.45117 119.186 5.29492C119.107 5.13867 118.992 5.0293 118.84 4.9668C118.691 4.90039 118.508 4.86719 118.289 4.86719C118.062 4.86719 117.865 4.91211 117.697 5.00195C117.533 5.0918 117.396 5.2168 117.287 5.37695C117.182 5.5332 117.102 5.7168 117.047 5.92773C116.992 6.13867 116.965 6.36523 116.965 6.60742ZM125.203 10.1172C124.711 10.1172 124.27 10.0391 123.879 9.88281C123.488 9.72266 123.156 9.50195 122.883 9.2207C122.613 8.93945 122.406 8.61328 122.262 8.24219C122.117 7.86719 122.045 7.46875 122.045 7.04688V6.8125C122.045 6.33203 122.113 5.89258 122.25 5.49414C122.387 5.0957 122.582 4.75 122.836 4.45703C123.094 4.16406 123.406 3.93945 123.773 3.7832C124.141 3.62305 124.555 3.54297 125.016 3.54297C125.465 3.54297 125.863 3.61719 126.211 3.76562C126.559 3.91406 126.85 4.125 127.084 4.39844C127.322 4.67188 127.502 5 127.623 5.38281C127.744 5.76172 127.805 6.18359 127.805 6.64844V7.35156H122.766V6.22656H126.146V6.09766C126.146 5.86328 126.104 5.6543 126.018 5.4707C125.936 5.2832 125.811 5.13477 125.643 5.02539C125.475 4.91602 125.26 4.86133 124.998 4.86133C124.775 4.86133 124.584 4.91016 124.424 5.00781C124.264 5.10547 124.133 5.24219 124.031 5.41797C123.934 5.59375 123.859 5.80078 123.809 6.03906C123.762 6.27344 123.738 6.53125 123.738 6.8125V7.04688C123.738 7.30078 123.773 7.53516 123.844 7.75C123.918 7.96484 124.021 8.15039 124.154 8.30664C124.291 8.46289 124.455 8.58398 124.646 8.66992C124.842 8.75586 125.062 8.79883 125.309 8.79883C125.613 8.79883 125.896 8.74023 126.158 8.62305C126.424 8.50195 126.652 8.32031 126.844 8.07812L127.664 8.96875C127.531 9.16016 127.35 9.34375 127.119 9.51953C126.893 9.69531 126.619 9.83984 126.299 9.95312C125.979 10.0625 125.613 10.1172 125.203 10.1172ZM132.193 8.24805C132.193 8.12695 132.158 8.01758 132.088 7.91992C132.018 7.82227 131.887 7.73242 131.695 7.65039C131.508 7.56445 131.236 7.48633 130.881 7.41602C130.561 7.3457 130.262 7.25781 129.984 7.15234C129.711 7.04297 129.473 6.91211 129.27 6.75977C129.07 6.60742 128.914 6.42773 128.801 6.2207C128.688 6.00977 128.631 5.76953 128.631 5.5C128.631 5.23438 128.688 4.98438 128.801 4.75C128.918 4.51562 129.084 4.30859 129.299 4.12891C129.518 3.94531 129.783 3.80273 130.096 3.70117C130.412 3.5957 130.768 3.54297 131.162 3.54297C131.713 3.54297 132.186 3.63086 132.58 3.80664C132.979 3.98242 133.283 4.22461 133.494 4.5332C133.709 4.83789 133.816 5.18555 133.816 5.57617H132.129C132.129 5.41211 132.094 5.26562 132.023 5.13672C131.957 5.00391 131.852 4.90039 131.707 4.82617C131.566 4.74805 131.383 4.70898 131.156 4.70898C130.969 4.70898 130.807 4.74219 130.67 4.80859C130.533 4.87109 130.428 4.95703 130.354 5.06641C130.283 5.17188 130.248 5.28906 130.248 5.41797C130.248 5.51562 130.268 5.60352 130.307 5.68164C130.35 5.75586 130.418 5.82422 130.512 5.88672C130.605 5.94922 130.727 6.00781 130.875 6.0625C131.027 6.11328 131.215 6.16016 131.438 6.20312C131.895 6.29688 132.303 6.41992 132.662 6.57227C133.021 6.7207 133.307 6.92383 133.518 7.18164C133.729 7.43555 133.834 7.76953 133.834 8.18359C133.834 8.46484 133.771 8.72266 133.646 8.95703C133.521 9.19141 133.342 9.39648 133.107 9.57227C132.873 9.74414 132.592 9.87891 132.264 9.97656C131.939 10.0703 131.574 10.1172 131.168 10.1172C130.578 10.1172 130.078 10.0117 129.668 9.80078C129.262 9.58984 128.953 9.32227 128.742 8.99805C128.535 8.66992 128.432 8.33398 128.432 7.99023H130.031C130.039 8.2207 130.098 8.40625 130.207 8.54688C130.32 8.6875 130.463 8.78906 130.635 8.85156C130.811 8.91406 131 8.94531 131.203 8.94531C131.422 8.94531 131.604 8.91602 131.748 8.85742C131.893 8.79492 132.002 8.71289 132.076 8.61133C132.154 8.50586 132.193 8.38477 132.193 8.24805ZM138.357 8.24805C138.357 8.12695 138.322 8.01758 138.252 7.91992C138.182 7.82227 138.051 7.73242 137.859 7.65039C137.672 7.56445 137.4 7.48633 137.045 7.41602C136.725 7.3457 136.426 7.25781 136.148 7.15234C135.875 7.04297 135.637 6.91211 135.434 6.75977C135.234 6.60742 135.078 6.42773 134.965 6.2207C134.852 6.00977 134.795 5.76953 134.795 5.5C134.795 5.23438 134.852 4.98438 134.965 4.75C135.082 4.51562 135.248 4.30859 135.463 4.12891C135.682 3.94531 135.947 3.80273 136.26 3.70117C136.576 3.5957 136.932 3.54297 137.326 3.54297C137.877 3.54297 138.35 3.63086 138.744 3.80664C139.143 3.98242 139.447 4.22461 139.658 4.5332C139.873 4.83789 139.98 5.18555 139.98 5.57617H138.293C138.293 5.41211 138.258 5.26562 138.188 5.13672C138.121 5.00391 138.016 4.90039 137.871 4.82617C137.73 4.74805 137.547 4.70898 137.32 4.70898C137.133 4.70898 136.971 4.74219 136.834 4.80859C136.697 4.87109 136.592 4.95703 136.518 5.06641C136.447 5.17188 136.412 5.28906 136.412 5.41797C136.412 5.51562 136.432 5.60352 136.471 5.68164C136.514 5.75586 136.582 5.82422 136.676 5.88672C136.77 5.94922 136.891 6.00781 137.039 6.0625C137.191 6.11328 137.379 6.16016 137.602 6.20312C138.059 6.29688 138.467 6.41992 138.826 6.57227C139.186 6.7207 139.471 6.92383 139.682 7.18164C139.893 7.43555 139.998 7.76953 139.998 8.18359C139.998 8.46484 139.936 8.72266 139.811 8.95703C139.686 9.19141 139.506 9.39648 139.271 9.57227C139.037 9.74414 138.756 9.87891 138.428 9.97656C138.104 10.0703 137.738 10.1172 137.332 10.1172C136.742 10.1172 136.242 10.0117 135.832 9.80078C135.426 9.58984 135.117 9.32227 134.906 8.99805C134.699 8.66992 134.596 8.33398 134.596 7.99023H136.195C136.203 8.2207 136.262 8.40625 136.371 8.54688C136.484 8.6875 136.627 8.78906 136.799 8.85156C136.975 8.91406 137.164 8.94531 137.367 8.94531C137.586 8.94531 137.768 8.91602 137.912 8.85742C138.057 8.79492 138.166 8.71289 138.24 8.61133C138.318 8.50586 138.357 8.38477 138.357 8.24805ZM3.48047 17.6602V18.4922H0.0527344V17.6602H3.48047ZM1.21289 16.1191H2.29688V22.4297C2.29688 22.6445 2.33008 22.8066 2.39648 22.916C2.46289 23.0254 2.54883 23.0977 2.6543 23.1328C2.75977 23.168 2.87305 23.1855 2.99414 23.1855C3.08398 23.1855 3.17773 23.1777 3.27539 23.1621C3.37695 23.1426 3.45312 23.127 3.50391 23.1152L3.50977 24C3.42383 24.0273 3.31055 24.0527 3.16992 24.0762C3.0332 24.1035 2.86719 24.1172 2.67188 24.1172C2.40625 24.1172 2.16211 24.0645 1.93945 23.959C1.7168 23.8535 1.53906 23.6777 1.40625 23.4316C1.27734 23.1816 1.21289 22.8457 1.21289 22.4238V16.1191ZM5.83594 15V24H4.75195V15H5.83594ZM5.57812 20.5898L5.12695 20.5723C5.13086 20.1387 5.19531 19.7383 5.32031 19.3711C5.44531 19 5.62109 18.6777 5.84766 18.4043C6.07422 18.1309 6.34375 17.9199 6.65625 17.7715C6.97266 17.6191 7.32227 17.543 7.70508 17.543C8.01758 17.543 8.29883 17.5859 8.54883 17.6719C8.79883 17.7539 9.01172 17.8867 9.1875 18.0703C9.36719 18.2539 9.50391 18.4922 9.59766 18.7852C9.69141 19.0742 9.73828 19.4277 9.73828 19.8457V24H8.64844V19.834C8.64844 19.502 8.59961 19.2363 8.50195 19.0371C8.4043 18.834 8.26172 18.6875 8.07422 18.5977C7.88672 18.5039 7.65625 18.457 7.38281 18.457C7.11328 18.457 6.86719 18.5137 6.64453 18.627C6.42578 18.7402 6.23633 18.8965 6.07617 19.0957C5.91992 19.2949 5.79688 19.5234 5.70703 19.7812C5.62109 20.0352 5.57812 20.3047 5.57812 20.5898ZM13.9922 24.1172C13.5508 24.1172 13.1504 24.043 12.791 23.8945C12.4355 23.7422 12.1289 23.5293 11.8711 23.2559C11.6172 22.9824 11.4219 22.6582 11.2852 22.2832C11.1484 21.9082 11.0801 21.498 11.0801 21.0527V20.8066C11.0801 20.291 11.1562 19.832 11.3086 19.4297C11.4609 19.0234 11.668 18.6797 11.9297 18.3984C12.1914 18.1172 12.4883 17.9043 12.8203 17.7598C13.1523 17.6152 13.4961 17.543 13.8516 17.543C14.3047 17.543 14.6953 17.6211 15.0234 17.7773C15.3555 17.9336 15.627 18.1523 15.8379 18.4336C16.0488 18.7109 16.2051 19.0391 16.3066 19.418C16.4082 19.793 16.459 20.2031 16.459 20.6484V21.1348H11.7246V20.25H15.375V20.168C15.3594 19.8867 15.3008 19.6133 15.1992 19.3477C15.1016 19.082 14.9453 18.8633 14.7305 18.6914C14.5156 18.5195 14.2227 18.4336 13.8516 18.4336C13.6055 18.4336 13.3789 18.4863 13.1719 18.5918C12.9648 18.6934 12.7871 18.8457 12.6387 19.0488C12.4902 19.252 12.375 19.5 12.293 19.793C12.2109 20.0859 12.1699 20.4238 12.1699 20.8066V21.0527C12.1699 21.3535 12.2109 21.6367 12.293 21.9023C12.3789 22.1641 12.502 22.3945 12.6621 22.5938C12.8262 22.793 13.0234 22.9492 13.2539 23.0625C13.4883 23.1758 13.7539 23.2324 14.0508 23.2324C14.4336 23.2324 14.7578 23.1543 15.0234 22.998C15.2891 22.8418 15.5215 22.6328 15.7207 22.3711L16.377 22.8926C16.2402 23.0996 16.0664 23.2969 15.8555 23.4844C15.6445 23.6719 15.3848 23.8242 15.0762 23.9414C14.7715 24.0586 14.4102 24.1172 13.9922 24.1172ZM21.7852 15V24H20.7012V15H21.7852ZM21.5273 20.5898L21.0762 20.5723C21.0801 20.1387 21.1445 19.7383 21.2695 19.3711C21.3945 19 21.5703 18.6777 21.7969 18.4043C22.0234 18.1309 22.293 17.9199 22.6055 17.7715C22.9219 17.6191 23.2715 17.543 23.6543 17.543C23.9668 17.543 24.248 17.5859 24.498 17.6719C24.748 17.7539 24.9609 17.8867 25.1367 18.0703C25.3164 18.2539 25.4531 18.4922 25.5469 18.7852C25.6406 19.0742 25.6875 19.4277 25.6875 19.8457V24H24.5977V19.834C24.5977 19.502 24.5488 19.2363 24.4512 19.0371C24.3535 18.834 24.2109 18.6875 24.0234 18.5977C23.8359 18.5039 23.6055 18.457 23.332 18.457C23.0625 18.457 22.8164 18.5137 22.5938 18.627C22.375 18.7402 22.1855 18.8965 22.0254 19.0957C21.8691 19.2949 21.7461 19.5234 21.6562 19.7812C21.5703 20.0352 21.5273 20.3047 21.5273 20.5898ZM31.0488 22.916V19.6523C31.0488 19.4023 30.998 19.1855 30.8965 19.002C30.7988 18.8145 30.6504 18.6699 30.4512 18.5684C30.252 18.4668 30.0059 18.416 29.7129 18.416C29.4395 18.416 29.1992 18.4629 28.9922 18.5566C28.7891 18.6504 28.6289 18.7734 28.5117 18.9258C28.3984 19.0781 28.3418 19.2422 28.3418 19.418H27.2578C27.2578 19.1914 27.3164 18.9668 27.4336 18.7441C27.5508 18.5215 27.7188 18.3203 27.9375 18.1406C28.1602 17.957 28.4258 17.8125 28.7344 17.707C29.0469 17.5977 29.3945 17.543 29.7773 17.543C30.2383 17.543 30.6445 17.6211 30.9961 17.7773C31.3516 17.9336 31.6289 18.1699 31.8281 18.4863C32.0312 18.7988 32.1328 19.1914 32.1328 19.6641V22.6172C32.1328 22.8281 32.1504 23.0527 32.1855 23.291C32.2246 23.5293 32.2812 23.7344 32.3555 23.9062V24H31.2246C31.1699 23.875 31.127 23.709 31.0957 23.502C31.0645 23.291 31.0488 23.0957 31.0488 22.916ZM31.2363 20.1562L31.248 20.918H30.1523C29.8438 20.918 29.5684 20.9434 29.3262 20.9941C29.084 21.041 28.8809 21.1133 28.7168 21.2109C28.5527 21.3086 28.4277 21.4316 28.3418 21.5801C28.2559 21.7246 28.2129 21.8945 28.2129 22.0898C28.2129 22.2891 28.2578 22.4707 28.3477 22.6348C28.4375 22.7988 28.5723 22.9297 28.752 23.0273C28.9355 23.1211 29.1602 23.168 29.4258 23.168C29.7578 23.168 30.0508 23.0977 30.3047 22.957C30.5586 22.8164 30.7598 22.6445 30.9082 22.4414C31.0605 22.2383 31.1426 22.041 31.1543 21.8496L31.6172 22.3711C31.5898 22.5352 31.5156 22.7168 31.3945 22.916C31.2734 23.1152 31.1113 23.3066 30.9082 23.4902C30.709 23.6699 30.4707 23.8203 30.1934 23.9414C29.9199 24.0586 29.6113 24.1172 29.2676 24.1172C28.8379 24.1172 28.4609 24.0332 28.1367 23.8652C27.8164 23.6973 27.5664 23.4727 27.3867 23.1914C27.2109 22.9062 27.123 22.5879 27.123 22.2363C27.123 21.8965 27.1895 21.5977 27.3223 21.3398C27.4551 21.0781 27.6465 20.8613 27.8965 20.6895C28.1465 20.5137 28.4473 20.3809 28.7988 20.291C29.1504 20.2012 29.543 20.1562 29.9766 20.1562H31.2363ZM34.9219 19.0137V24H33.8379V17.6602H34.8633L34.9219 19.0137ZM34.6641 20.5898L34.2129 20.5723C34.2168 20.1387 34.2812 19.7383 34.4062 19.3711C34.5312 19 34.707 18.6777 34.9336 18.4043C35.1602 18.1309 35.4297 17.9199 35.7422 17.7715C36.0586 17.6191 36.4082 17.543 36.791 17.543C37.1035 17.543 37.3848 17.5859 37.6348 17.6719C37.8848 17.7539 38.0977 17.8867 38.2734 18.0703C38.4531 18.2539 38.5898 18.4922 38.6836 18.7852C38.7773 19.0742 38.8242 19.4277 38.8242 19.8457V24H37.7344V19.834C37.7344 19.502 37.6855 19.2363 37.5879 19.0371C37.4902 18.834 37.3477 18.6875 37.1602 18.5977C36.9727 18.5039 36.7422 18.457 36.4688 18.457C36.1992 18.457 35.9531 18.5137 35.7305 18.627C35.5117 18.7402 35.3223 18.8965 35.1621 19.0957C35.0059 19.2949 34.8828 19.5234 34.793 19.7812C34.707 20.0352 34.6641 20.3047 34.6641 20.5898ZM44.4668 22.7695V15H45.5566V24H44.5605L44.4668 22.7695ZM40.2012 20.9004V20.7773C40.2012 20.293 40.2598 19.8535 40.377 19.459C40.498 19.0605 40.668 18.7188 40.8867 18.4336C41.1094 18.1484 41.373 17.9297 41.6777 17.7773C41.9863 17.6211 42.3301 17.543 42.709 17.543C43.1074 17.543 43.4551 17.6133 43.752 17.7539C44.0527 17.8906 44.3066 18.0918 44.5137 18.3574C44.7246 18.6191 44.8906 18.9355 45.0117 19.3066C45.1328 19.6777 45.2168 20.0977 45.2637 20.5664V21.1055C45.2207 21.5703 45.1367 21.9883 45.0117 22.3594C44.8906 22.7305 44.7246 23.0469 44.5137 23.3086C44.3066 23.5703 44.0527 23.7715 43.752 23.9121C43.4512 24.0488 43.0996 24.1172 42.6973 24.1172C42.3262 24.1172 41.9863 24.0371 41.6777 23.877C41.373 23.7168 41.1094 23.4922 40.8867 23.2031C40.668 22.9141 40.498 22.5742 40.377 22.1836C40.2598 21.7891 40.2012 21.3613 40.2012 20.9004ZM41.291 20.7773V20.9004C41.291 21.2168 41.3223 21.5137 41.3848 21.791C41.4512 22.0684 41.5527 22.3125 41.6895 22.5234C41.8262 22.7344 42 22.9004 42.2109 23.0215C42.4219 23.1387 42.6738 23.1973 42.9668 23.1973C43.3262 23.1973 43.6211 23.1211 43.8516 22.9688C44.0859 22.8164 44.2734 22.6152 44.4141 22.3652C44.5547 22.1152 44.6641 21.8438 44.7422 21.5508V20.1387C44.6953 19.9238 44.627 19.7168 44.5371 19.5176C44.4512 19.3145 44.3379 19.1348 44.1973 18.9785C44.0605 18.8184 43.8906 18.6914 43.6875 18.5977C43.4883 18.5039 43.252 18.457 42.9785 18.457C42.6816 18.457 42.4258 18.5195 42.2109 18.6445C42 18.7656 41.8262 18.9336 41.6895 19.1484C41.5527 19.3594 41.4512 19.6055 41.3848 19.8867C41.3223 20.1641 41.291 20.4609 41.291 20.7773ZM47.2383 15H48.3281V22.7695L48.2344 24H47.2383V15ZM52.6113 20.7773V20.9004C52.6113 21.3613 52.5566 21.7891 52.4473 22.1836C52.3379 22.5742 52.1777 22.9141 51.9668 23.2031C51.7559 23.4922 51.498 23.7168 51.1934 23.877C50.8887 24.0371 50.5391 24.1172 50.1445 24.1172C49.7422 24.1172 49.3887 24.0488 49.084 23.9121C48.7832 23.7715 48.5293 23.5703 48.3223 23.3086C48.1152 23.0469 47.9492 22.7305 47.8242 22.3594C47.7031 21.9883 47.6191 21.5703 47.5723 21.1055V20.5664C47.6191 20.0977 47.7031 19.6777 47.8242 19.3066C47.9492 18.9355 48.1152 18.6191 48.3223 18.3574C48.5293 18.0918 48.7832 17.8906 49.084 17.7539C49.3848 17.6133 49.7344 17.543 50.1328 17.543C50.5312 17.543 50.8848 17.6211 51.1934 17.7773C51.502 17.9297 51.7598 18.1484 51.9668 18.4336C52.1777 18.7188 52.3379 19.0605 52.4473 19.459C52.5566 19.8535 52.6113 20.293 52.6113 20.7773ZM51.5215 20.9004V20.7773C51.5215 20.4609 51.4922 20.1641 51.4336 19.8867C51.375 19.6055 51.2812 19.3594 51.1523 19.1484C51.0234 18.9336 50.8535 18.7656 50.6426 18.6445C50.4316 18.5195 50.1719 18.457 49.8633 18.457C49.5898 18.457 49.3516 18.5039 49.1484 18.5977C48.9492 18.6914 48.7793 18.8184 48.6387 18.9785C48.498 19.1348 48.3828 19.3145 48.293 19.5176C48.207 19.7168 48.1426 19.9238 48.0996 20.1387V21.5508C48.1621 21.8242 48.2637 22.0879 48.4043 22.3418C48.5488 22.5918 48.7402 22.7969 48.9785 22.957C49.2207 23.1172 49.5195 23.1973 49.875 23.1973C50.168 23.1973 50.418 23.1387 50.625 23.0215C50.8359 22.9004 51.0059 22.7344 51.1348 22.5234C51.2676 22.3125 51.3652 22.0684 51.4277 21.791C51.4902 21.5137 51.5215 21.2168 51.5215 20.9004ZM53.6953 20.9004V20.7656C53.6953 20.3086 53.7617 19.8848 53.8945 19.4941C54.0273 19.0996 54.2188 18.7578 54.4688 18.4688C54.7188 18.1758 55.0215 17.9492 55.377 17.7891C55.7324 17.625 56.1309 17.543 56.5723 17.543C57.0176 17.543 57.418 17.625 57.7734 17.7891C58.1328 17.9492 58.4375 18.1758 58.6875 18.4688C58.9414 18.7578 59.1348 19.0996 59.2676 19.4941C59.4004 19.8848 59.4668 20.3086 59.4668 20.7656V20.9004C59.4668 21.3574 59.4004 21.7812 59.2676 22.1719C59.1348 22.5625 58.9414 22.9043 58.6875 23.1973C58.4375 23.4863 58.1348 23.7129 57.7793 23.877C57.4277 24.0371 57.0293 24.1172 56.584 24.1172C56.1387 24.1172 55.7383 24.0371 55.3828 23.877C55.0273 23.7129 54.7227 23.4863 54.4688 23.1973C54.2188 22.9043 54.0273 22.5625 53.8945 22.1719C53.7617 21.7812 53.6953 21.3574 53.6953 20.9004ZM54.7793 20.7656V20.9004C54.7793 21.2168 54.8164 21.5156 54.8906 21.7969C54.9648 22.0742 55.0762 22.3203 55.2246 22.5352C55.377 22.75 55.5664 22.9199 55.793 23.0449C56.0195 23.166 56.2832 23.2266 56.584 23.2266C56.8809 23.2266 57.1406 23.166 57.3633 23.0449C57.5898 22.9199 57.7773 22.75 57.9258 22.5352C58.0742 22.3203 58.1855 22.0742 58.2598 21.7969C58.3379 21.5156 58.377 21.2168 58.377 20.9004V20.7656C58.377 20.4531 58.3379 20.1582 58.2598 19.8809C58.1855 19.5996 58.0723 19.3516 57.9199 19.1367C57.7715 18.918 57.584 18.7461 57.3574 18.6211C57.1348 18.4961 56.873 18.4336 56.5723 18.4336C56.2754 18.4336 56.0137 18.4961 55.7871 18.6211C55.5645 18.7461 55.377 18.918 55.2246 19.1367C55.0762 19.3516 54.9648 19.5996 54.8906 19.8809C54.8164 20.1582 54.7793 20.4531 54.7793 20.7656ZM60.5391 20.9004V20.7656C60.5391 20.3086 60.6055 19.8848 60.7383 19.4941C60.8711 19.0996 61.0625 18.7578 61.3125 18.4688C61.5625 18.1758 61.8652 17.9492 62.2207 17.7891C62.5762 17.625 62.9746 17.543 63.416 17.543C63.8613 17.543 64.2617 17.625 64.6172 17.7891C64.9766 17.9492 65.2812 18.1758 65.5312 18.4688C65.7852 18.7578 65.9785 19.0996 66.1113 19.4941C66.2441 19.8848 66.3105 20.3086 66.3105 20.7656V20.9004C66.3105 21.3574 66.2441 21.7812 66.1113 22.1719C65.9785 22.5625 65.7852 22.9043 65.5312 23.1973C65.2812 23.4863 64.9785 23.7129 64.623 23.877C64.2715 24.0371 63.873 24.1172 63.4277 24.1172C62.9824 24.1172 62.582 24.0371 62.2266 23.877C61.8711 23.7129 61.5664 23.4863 61.3125 23.1973C61.0625 22.9043 60.8711 22.5625 60.7383 22.1719C60.6055 21.7812 60.5391 21.3574 60.5391 20.9004ZM61.623 20.7656V20.9004C61.623 21.2168 61.6602 21.5156 61.7344 21.7969C61.8086 22.0742 61.9199 22.3203 62.0684 22.5352C62.2207 22.75 62.4102 22.9199 62.6367 23.0449C62.8633 23.166 63.127 23.2266 63.4277 23.2266C63.7246 23.2266 63.9844 23.166 64.207 23.0449C64.4336 22.9199 64.6211 22.75 64.7695 22.5352C64.918 22.3203 65.0293 22.0742 65.1035 21.7969C65.1816 21.5156 65.2207 21.2168 65.2207 20.9004V20.7656C65.2207 20.4531 65.1816 20.1582 65.1035 19.8809C65.0293 19.5996 64.916 19.3516 64.7637 19.1367C64.6152 18.918 64.4277 18.7461 64.2012 18.6211C63.9785 18.4961 63.7168 18.4336 63.416 18.4336C63.1191 18.4336 62.8574 18.4961 62.6309 18.6211C62.4082 18.7461 62.2207 18.918 62.0684 19.1367C61.9199 19.3516 61.8086 19.5996 61.7344 19.8809C61.6602 20.1582 61.623 20.4531 61.623 20.7656ZM68.7598 15V24H67.6699V15H68.7598ZM72.6328 17.6602L69.8672 20.6191L68.3203 22.2246L68.2324 21.0703L69.3398 19.7461L71.3086 17.6602H72.6328ZM71.6426 24L69.3809 20.9766L69.9434 20.0098L72.9199 24H71.6426Z" fill="white"/>
</svg>
