<svg width="399" height="20" viewBox="0 0 399 20" fill="none" xmlns="http://www.w3.org/2000/svg">
<rect width="67" height="20" fill="#306EFF"/>
<rect x="83" width="67" height="20" fill="#306EFF"/>
<rect x="166" width="67" height="20" fill="#306EFF"/>
<rect x="249" width="67" height="20" fill="#306EFF"/>
<rect x="332" width="67" height="20" fill="#306EFF"/>
<path d="M13.1367 10.6543H10.8574V9.73438H13.1367C13.5781 9.73438 13.9355 9.66406 14.209 9.52344C14.4824 9.38281 14.6816 9.1875 14.8066 8.9375C14.9355 8.6875 15 8.40234 15 8.08203C15 7.78906 14.9355 7.51367 14.8066 7.25586C14.6816 6.99805 14.4824 6.79102 14.209 6.63477C13.9355 6.47461 13.5781 6.39453 13.1367 6.39453H11.1211V14H9.99023V5.46875H13.1367C13.7812 5.46875 14.3262 5.58008 14.7715 5.80273C15.2168 6.02539 15.5547 6.33398 15.7852 6.72852C16.0156 7.11914 16.1309 7.56641 16.1309 8.07031C16.1309 8.61719 16.0156 9.08398 15.7852 9.4707C15.5547 9.85742 15.2168 10.1523 14.7715 10.3555C14.3262 10.5547 13.7812 10.6543 13.1367 10.6543ZM18.5742 5V14H17.4844V5H18.5742ZM24.0527 12.916V9.65234C24.0527 9.40234 24.002 9.18555 23.9004 9.00195C23.8027 8.81445 23.6543 8.66992 23.4551 8.56836C23.2559 8.4668 23.0098 8.41602 22.7168 8.41602C22.4434 8.41602 22.2031 8.46289 21.9961 8.55664C21.793 8.65039 21.6328 8.77344 21.5156 8.92578C21.4023 9.07812 21.3457 9.24219 21.3457 9.41797H20.2617C20.2617 9.19141 20.3203 8.9668 20.4375 8.74414C20.5547 8.52148 20.7227 8.32031 20.9414 8.14062C21.1641 7.95703 21.4297 7.8125 21.7383 7.70703C22.0508 7.59766 22.3984 7.54297 22.7812 7.54297C23.2422 7.54297 23.6484 7.62109 24 7.77734C24.3555 7.93359 24.6328 8.16992 24.832 8.48633C25.0352 8.79883 25.1367 9.19141 25.1367 9.66406V12.6172C25.1367 12.8281 25.1543 13.0527 25.1895 13.291C25.2285 13.5293 25.2852 13.7344 25.3594 13.9062V14H24.2285C24.1738 13.875 24.1309 13.709 24.0996 13.502C24.0684 13.291 24.0527 13.0957 24.0527 12.916ZM24.2402 10.1562L24.252 10.918H23.1562C22.8477 10.918 22.5723 10.9434 22.3301 10.9941C22.0879 11.041 21.8848 11.1133 21.7207 11.2109C21.5566 11.3086 21.4316 11.4316 21.3457 11.5801C21.2598 11.7246 21.2168 11.8945 21.2168 12.0898C21.2168 12.2891 21.2617 12.4707 21.3516 12.6348C21.4414 12.7988 21.5762 12.9297 21.7559 13.0273C21.9395 13.1211 22.1641 13.168 22.4297 13.168C22.7617 13.168 23.0547 13.0977 23.3086 12.957C23.5625 12.8164 23.7637 12.6445 23.9121 12.4414C24.0645 12.2383 24.1465 12.041 24.1582 11.8496L24.6211 12.3711C24.5938 12.5352 24.5195 12.7168 24.3984 12.916C24.2773 13.1152 24.1152 13.3066 23.9121 13.4902C23.7129 13.6699 23.4746 13.8203 23.1973 13.9414C22.9238 14.0586 22.6152 14.1172 22.2715 14.1172C21.8418 14.1172 21.4648 14.0332 21.1406 13.8652C20.8203 13.6973 20.5703 13.4727 20.3906 13.1914C20.2148 12.9062 20.127 12.5879 20.127 12.2363C20.127 11.8965 20.1934 11.5977 20.3262 11.3398C20.459 11.0781 20.6504 10.8613 20.9004 10.6895C21.1504 10.5137 21.4512 10.3809 21.8027 10.291C22.1543 10.2012 22.5469 10.1562 22.9805 10.1562H24.2402ZM27.9258 9.01367V14H26.8418V7.66016H27.8672L27.9258 9.01367ZM27.668 10.5898L27.2168 10.5723C27.2207 10.1387 27.2852 9.73828 27.4102 9.37109C27.5352 9 27.7109 8.67773 27.9375 8.4043C28.1641 8.13086 28.4336 7.91992 28.7461 7.77148C29.0625 7.61914 29.4121 7.54297 29.7949 7.54297C30.1074 7.54297 30.3887 7.58594 30.6387 7.67188C30.8887 7.75391 31.1016 7.88672 31.2773 8.07031C31.457 8.25391 31.5938 8.49219 31.6875 8.78516C31.7812 9.07422 31.8281 9.42773 31.8281 9.8457V14H30.7383V9.83398C30.7383 9.50195 30.6895 9.23633 30.5918 9.03711C30.4941 8.83398 30.3516 8.6875 30.1641 8.59766C29.9766 8.50391 29.7461 8.45703 29.4727 8.45703C29.2031 8.45703 28.957 8.51367 28.7344 8.62695C28.5156 8.74023 28.3262 8.89648 28.166 9.0957C28.0098 9.29492 27.8867 9.52344 27.7969 9.78125C27.7109 10.0352 27.668 10.3047 27.668 10.5898ZM34.5586 9.01367V14H33.4746V7.66016H34.5L34.5586 9.01367ZM34.3008 10.5898L33.8496 10.5723C33.8535 10.1387 33.918 9.73828 34.043 9.37109C34.168 9 34.3438 8.67773 34.5703 8.4043C34.7969 8.13086 35.0664 7.91992 35.3789 7.77148C35.6953 7.61914 36.0449 7.54297 36.4277 7.54297C36.7402 7.54297 37.0215 7.58594 37.2715 7.67188C37.5215 7.75391 37.7344 7.88672 37.9102 8.07031C38.0898 8.25391 38.2266 8.49219 38.3203 8.78516C38.4141 9.07422 38.4609 9.42773 38.4609 9.8457V14H37.3711V9.83398C37.3711 9.50195 37.3223 9.23633 37.2246 9.03711C37.127 8.83398 36.9844 8.6875 36.7969 8.59766C36.6094 8.50391 36.3789 8.45703 36.1055 8.45703C35.8359 8.45703 35.5898 8.51367 35.3672 8.62695C35.1484 8.74023 34.959 8.89648 34.7988 9.0957C34.6426 9.29492 34.5195 9.52344 34.4297 9.78125C34.3438 10.0352 34.3008 10.3047 34.3008 10.5898ZM41.2852 7.66016V14H40.1953V7.66016H41.2852ZM40.1133 5.97852C40.1133 5.80273 40.166 5.6543 40.2715 5.5332C40.3809 5.41211 40.541 5.35156 40.752 5.35156C40.959 5.35156 41.1172 5.41211 41.2266 5.5332C41.3398 5.6543 41.3965 5.80273 41.3965 5.97852C41.3965 6.14648 41.3398 6.29102 41.2266 6.41211C41.1172 6.5293 40.959 6.58789 40.752 6.58789C40.541 6.58789 40.3809 6.5293 40.2715 6.41211C40.166 6.29102 40.1133 6.14648 40.1133 5.97852ZM44.1094 9.01367V14H43.0254V7.66016H44.0508L44.1094 9.01367ZM43.8516 10.5898L43.4004 10.5723C43.4043 10.1387 43.4688 9.73828 43.5938 9.37109C43.7188 9 43.8945 8.67773 44.1211 8.4043C44.3477 8.13086 44.6172 7.91992 44.9297 7.77148C45.2461 7.61914 45.5957 7.54297 45.9785 7.54297C46.291 7.54297 46.5723 7.58594 46.8223 7.67188C47.0723 7.75391 47.2852 7.88672 47.4609 8.07031C47.6406 8.25391 47.7773 8.49219 47.8711 8.78516C47.9648 9.07422 48.0117 9.42773 48.0117 9.8457V14H46.9219V9.83398C46.9219 9.50195 46.873 9.23633 46.7754 9.03711C46.6777 8.83398 46.5352 8.6875 46.3477 8.59766C46.1602 8.50391 45.9297 8.45703 45.6562 8.45703C45.3867 8.45703 45.1406 8.51367 44.918 8.62695C44.6992 8.74023 44.5098 8.89648 44.3496 9.0957C44.1934 9.29492 44.0703 9.52344 43.9805 9.78125C43.8945 10.0352 43.8516 10.3047 43.8516 10.5898ZM53.7656 7.66016H54.75V13.8652C54.75 14.4238 54.6367 14.9004 54.4102 15.2949C54.1836 15.6895 53.8672 15.9883 53.4609 16.1914C53.0586 16.3984 52.5938 16.502 52.0664 16.502C51.8477 16.502 51.5898 16.4668 51.293 16.3965C51 16.3301 50.7109 16.2148 50.4258 16.0508C50.1445 15.8906 49.9082 15.6738 49.7168 15.4004L50.2852 14.7559C50.5508 15.0762 50.8281 15.2988 51.1172 15.4238C51.4102 15.5488 51.6992 15.6113 51.9844 15.6113C52.3281 15.6113 52.625 15.5469 52.875 15.418C53.125 15.2891 53.3184 15.0977 53.4551 14.8438C53.5957 14.5938 53.666 14.2852 53.666 13.918V9.05469L53.7656 7.66016ZM49.4004 10.9004V10.7773C49.4004 10.293 49.457 9.85352 49.5703 9.45898C49.6875 9.06055 49.8535 8.71875 50.0684 8.43359C50.2871 8.14844 50.5508 7.92969 50.8594 7.77734C51.168 7.62109 51.5156 7.54297 51.9023 7.54297C52.3008 7.54297 52.6484 7.61328 52.9453 7.75391C53.2461 7.89062 53.5 8.0918 53.707 8.35742C53.918 8.61914 54.084 8.93555 54.2051 9.30664C54.3262 9.67773 54.4102 10.0977 54.457 10.5664V11.1055C54.4141 11.5703 54.3301 11.9883 54.2051 12.3594C54.084 12.7305 53.918 13.0469 53.707 13.3086C53.5 13.5703 53.2461 13.7715 52.9453 13.9121C52.6445 14.0488 52.293 14.1172 51.8906 14.1172C51.5117 14.1172 51.168 14.0371 50.8594 13.877C50.5547 13.7168 50.293 13.4922 50.0742 13.2031C49.8555 12.9141 49.6875 12.5742 49.5703 12.1836C49.457 11.7891 49.4004 11.3613 49.4004 10.9004ZM50.4844 10.7773V10.9004C50.4844 11.2168 50.5156 11.5137 50.5781 11.791C50.6445 12.0684 50.7441 12.3125 50.877 12.5234C51.0137 12.7344 51.1875 12.9004 51.3984 13.0215C51.6094 13.1387 51.8613 13.1973 52.1543 13.1973C52.5137 13.1973 52.8105 13.1211 53.0449 12.9688C53.2793 12.8164 53.4648 12.6152 53.6016 12.3652C53.7422 12.1152 53.8516 11.8438 53.9297 11.5508V10.1387C53.8867 9.92383 53.8203 9.7168 53.7305 9.51758C53.6445 9.31445 53.5312 9.13477 53.3906 8.97852C53.2539 8.81836 53.084 8.69141 52.8809 8.59766C52.6777 8.50391 52.4395 8.45703 52.166 8.45703C51.8691 8.45703 51.6133 8.51953 51.3984 8.64453C51.1875 8.76562 51.0137 8.93359 50.877 9.14844C50.7441 9.35938 50.6445 9.60547 50.5781 9.88672C50.5156 10.1641 50.4844 10.4609 50.4844 10.7773Z" fill="white"/>
<path d="M103.141 11.2871H104.266C104.207 11.8262 104.053 12.3086 103.803 12.7344C103.553 13.1602 103.199 13.498 102.742 13.748C102.285 13.9941 101.715 14.1172 101.031 14.1172C100.531 14.1172 100.076 14.0234 99.666 13.8359C99.2598 13.6484 98.9102 13.3828 98.6172 13.0391C98.3242 12.6914 98.0977 12.2754 97.9375 11.791C97.7812 11.3027 97.7031 10.7598 97.7031 10.1621V9.3125C97.7031 8.71484 97.7812 8.17383 97.9375 7.68945C98.0977 7.20117 98.3262 6.7832 98.623 6.43555C98.9238 6.08789 99.2852 5.82031 99.707 5.63281C100.129 5.44531 100.604 5.35156 101.131 5.35156C101.775 5.35156 102.32 5.47266 102.766 5.71484C103.211 5.95703 103.557 6.29297 103.803 6.72266C104.053 7.14844 104.207 7.64258 104.266 8.20508H103.141C103.086 7.80664 102.984 7.46484 102.836 7.17969C102.688 6.89062 102.477 6.66797 102.203 6.51172C101.93 6.35547 101.572 6.27734 101.131 6.27734C100.752 6.27734 100.418 6.34961 100.129 6.49414C99.8438 6.63867 99.6035 6.84375 99.4082 7.10938C99.2168 7.375 99.0723 7.69336 98.9746 8.06445C98.877 8.43555 98.8281 8.84766 98.8281 9.30078V10.1621C98.8281 10.5801 98.8711 10.9727 98.957 11.3398C99.0469 11.707 99.1816 12.0293 99.3613 12.3066C99.541 12.584 99.7695 12.8027 100.047 12.9629C100.324 13.1191 100.652 13.1973 101.031 13.1973C101.512 13.1973 101.895 13.1211 102.18 12.9688C102.465 12.8164 102.68 12.5977 102.824 12.3125C102.973 12.0273 103.078 11.6855 103.141 11.2871ZM105.355 10.9004V10.7656C105.355 10.3086 105.422 9.88477 105.555 9.49414C105.688 9.09961 105.879 8.75781 106.129 8.46875C106.379 8.17578 106.682 7.94922 107.037 7.78906C107.393 7.625 107.791 7.54297 108.232 7.54297C108.678 7.54297 109.078 7.625 109.434 7.78906C109.793 7.94922 110.098 8.17578 110.348 8.46875C110.602 8.75781 110.795 9.09961 110.928 9.49414C111.061 9.88477 111.127 10.3086 111.127 10.7656V10.9004C111.127 11.3574 111.061 11.7812 110.928 12.1719C110.795 12.5625 110.602 12.9043 110.348 13.1973C110.098 13.4863 109.795 13.7129 109.439 13.877C109.088 14.0371 108.689 14.1172 108.244 14.1172C107.799 14.1172 107.398 14.0371 107.043 13.877C106.688 13.7129 106.383 13.4863 106.129 13.1973C105.879 12.9043 105.688 12.5625 105.555 12.1719C105.422 11.7812 105.355 11.3574 105.355 10.9004ZM106.439 10.7656V10.9004C106.439 11.2168 106.477 11.5156 106.551 11.7969C106.625 12.0742 106.736 12.3203 106.885 12.5352C107.037 12.75 107.227 12.9199 107.453 13.0449C107.68 13.166 107.943 13.2266 108.244 13.2266C108.541 13.2266 108.801 13.166 109.023 13.0449C109.25 12.9199 109.438 12.75 109.586 12.5352C109.734 12.3203 109.846 12.0742 109.92 11.7969C109.998 11.5156 110.037 11.2168 110.037 10.9004V10.7656C110.037 10.4531 109.998 10.1582 109.92 9.88086C109.846 9.59961 109.732 9.35156 109.58 9.13672C109.432 8.91797 109.244 8.74609 109.018 8.62109C108.795 8.49609 108.533 8.43359 108.232 8.43359C107.936 8.43359 107.674 8.49609 107.447 8.62109C107.225 8.74609 107.037 8.91797 106.885 9.13672C106.736 9.35156 106.625 9.59961 106.551 9.88086C106.477 10.1582 106.439 10.4531 106.439 10.7656ZM116.482 12.7695V5H117.572V14H116.576L116.482 12.7695ZM112.217 10.9004V10.7773C112.217 10.293 112.275 9.85352 112.393 9.45898C112.514 9.06055 112.684 8.71875 112.902 8.43359C113.125 8.14844 113.389 7.92969 113.693 7.77734C114.002 7.62109 114.346 7.54297 114.725 7.54297C115.123 7.54297 115.471 7.61328 115.768 7.75391C116.068 7.89062 116.322 8.0918 116.529 8.35742C116.74 8.61914 116.906 8.93555 117.027 9.30664C117.148 9.67773 117.232 10.0977 117.279 10.5664V11.1055C117.236 11.5703 117.152 11.9883 117.027 12.3594C116.906 12.7305 116.74 13.0469 116.529 13.3086C116.322 13.5703 116.068 13.7715 115.768 13.9121C115.467 14.0488 115.115 14.1172 114.713 14.1172C114.342 14.1172 114.002 14.0371 113.693 13.877C113.389 13.7168 113.125 13.4922 112.902 13.2031C112.684 12.9141 112.514 12.5742 112.393 12.1836C112.275 11.7891 112.217 11.3613 112.217 10.9004ZM113.307 10.7773V10.9004C113.307 11.2168 113.338 11.5137 113.4 11.791C113.467 12.0684 113.568 12.3125 113.705 12.5234C113.842 12.7344 114.016 12.9004 114.227 13.0215C114.438 13.1387 114.689 13.1973 114.982 13.1973C115.342 13.1973 115.637 13.1211 115.867 12.9688C116.102 12.8164 116.289 12.6152 116.43 12.3652C116.57 12.1152 116.68 11.8438 116.758 11.5508V10.1387C116.711 9.92383 116.643 9.7168 116.553 9.51758C116.467 9.31445 116.354 9.13477 116.213 8.97852C116.076 8.81836 115.906 8.69141 115.703 8.59766C115.504 8.50391 115.268 8.45703 114.994 8.45703C114.697 8.45703 114.441 8.51953 114.227 8.64453C114.016 8.76562 113.842 8.93359 113.705 9.14844C113.568 9.35938 113.467 9.60547 113.4 9.88672C113.338 10.1641 113.307 10.4609 113.307 10.7773ZM120.438 7.66016V14H119.348V7.66016H120.438ZM119.266 5.97852C119.266 5.80273 119.318 5.6543 119.424 5.5332C119.533 5.41211 119.693 5.35156 119.904 5.35156C120.111 5.35156 120.27 5.41211 120.379 5.5332C120.492 5.6543 120.549 5.80273 120.549 5.97852C120.549 6.14648 120.492 6.29102 120.379 6.41211C120.27 6.5293 120.111 6.58789 119.904 6.58789C119.693 6.58789 119.533 6.5293 119.424 6.41211C119.318 6.29102 119.266 6.14648 119.266 5.97852ZM123.262 9.01367V14H122.178V7.66016H123.203L123.262 9.01367ZM123.004 10.5898L122.553 10.5723C122.557 10.1387 122.621 9.73828 122.746 9.37109C122.871 9 123.047 8.67773 123.273 8.4043C123.5 8.13086 123.77 7.91992 124.082 7.77148C124.398 7.61914 124.748 7.54297 125.131 7.54297C125.443 7.54297 125.725 7.58594 125.975 7.67188C126.225 7.75391 126.438 7.88672 126.613 8.07031C126.793 8.25391 126.93 8.49219 127.023 8.78516C127.117 9.07422 127.164 9.42773 127.164 9.8457V14H126.074V9.83398C126.074 9.50195 126.025 9.23633 125.928 9.03711C125.83 8.83398 125.688 8.6875 125.5 8.59766C125.312 8.50391 125.082 8.45703 124.809 8.45703C124.539 8.45703 124.293 8.51367 124.07 8.62695C123.852 8.74023 123.662 8.89648 123.502 9.0957C123.346 9.29492 123.223 9.52344 123.133 9.78125C123.047 10.0352 123.004 10.3047 123.004 10.5898ZM132.918 7.66016H133.902V13.8652C133.902 14.4238 133.789 14.9004 133.562 15.2949C133.336 15.6895 133.02 15.9883 132.613 16.1914C132.211 16.3984 131.746 16.502 131.219 16.502C131 16.502 130.742 16.4668 130.445 16.3965C130.152 16.3301 129.863 16.2148 129.578 16.0508C129.297 15.8906 129.061 15.6738 128.869 15.4004L129.438 14.7559C129.703 15.0762 129.98 15.2988 130.27 15.4238C130.562 15.5488 130.852 15.6113 131.137 15.6113C131.48 15.6113 131.777 15.5469 132.027 15.418C132.277 15.2891 132.471 15.0977 132.607 14.8438C132.748 14.5938 132.818 14.2852 132.818 13.918V9.05469L132.918 7.66016ZM128.553 10.9004V10.7773C128.553 10.293 128.609 9.85352 128.723 9.45898C128.84 9.06055 129.006 8.71875 129.221 8.43359C129.439 8.14844 129.703 7.92969 130.012 7.77734C130.32 7.62109 130.668 7.54297 131.055 7.54297C131.453 7.54297 131.801 7.61328 132.098 7.75391C132.398 7.89062 132.652 8.0918 132.859 8.35742C133.07 8.61914 133.236 8.93555 133.357 9.30664C133.479 9.67773 133.562 10.0977 133.609 10.5664V11.1055C133.566 11.5703 133.482 11.9883 133.357 12.3594C133.236 12.7305 133.07 13.0469 132.859 13.3086C132.652 13.5703 132.398 13.7715 132.098 13.9121C131.797 14.0488 131.445 14.1172 131.043 14.1172C130.664 14.1172 130.32 14.0371 130.012 13.877C129.707 13.7168 129.445 13.4922 129.227 13.2031C129.008 12.9141 128.84 12.5742 128.723 12.1836C128.609 11.7891 128.553 11.3613 128.553 10.9004ZM129.637 10.7773V10.9004C129.637 11.2168 129.668 11.5137 129.73 11.791C129.797 12.0684 129.896 12.3125 130.029 12.5234C130.166 12.7344 130.34 12.9004 130.551 13.0215C130.762 13.1387 131.014 13.1973 131.307 13.1973C131.666 13.1973 131.963 13.1211 132.197 12.9688C132.432 12.8164 132.617 12.6152 132.754 12.3652C132.895 12.1152 133.004 11.8438 133.082 11.5508V10.1387C133.039 9.92383 132.973 9.7168 132.883 9.51758C132.797 9.31445 132.684 9.13477 132.543 8.97852C132.406 8.81836 132.236 8.69141 132.033 8.59766C131.83 8.50391 131.592 8.45703 131.318 8.45703C131.021 8.45703 130.766 8.51953 130.551 8.64453C130.34 8.76562 130.166 8.93359 130.029 9.14844C129.896 9.35938 129.797 9.60547 129.73 9.88672C129.668 10.1641 129.637 10.4609 129.637 10.7773Z" fill="white"/>
<path d="M172.99 5.46875H175.814C176.455 5.46875 176.996 5.56641 177.438 5.76172C177.883 5.95703 178.221 6.24609 178.451 6.62891C178.686 7.00781 178.803 7.47461 178.803 8.0293C178.803 8.41992 178.723 8.77734 178.562 9.10156C178.406 9.42188 178.18 9.69531 177.883 9.92188C177.59 10.1445 177.238 10.3105 176.828 10.4199L176.512 10.543H173.857L173.846 9.62305H175.85C176.256 9.62305 176.594 9.55273 176.863 9.41211C177.133 9.26758 177.336 9.07422 177.473 8.83203C177.609 8.58984 177.678 8.32227 177.678 8.0293C177.678 7.70117 177.613 7.41406 177.484 7.16797C177.355 6.92188 177.152 6.73242 176.875 6.59961C176.602 6.46289 176.248 6.39453 175.814 6.39453H174.121V14H172.99V5.46875ZM177.977 14L175.902 10.1328L177.08 10.127L179.184 13.9297V14H177.977ZM182.852 14.1172C182.41 14.1172 182.01 14.043 181.65 13.8945C181.295 13.7422 180.988 13.5293 180.73 13.2559C180.477 12.9824 180.281 12.6582 180.145 12.2832C180.008 11.9082 179.939 11.498 179.939 11.0527V10.8066C179.939 10.291 180.016 9.83203 180.168 9.42969C180.32 9.02344 180.527 8.67969 180.789 8.39844C181.051 8.11719 181.348 7.9043 181.68 7.75977C182.012 7.61523 182.355 7.54297 182.711 7.54297C183.164 7.54297 183.555 7.62109 183.883 7.77734C184.215 7.93359 184.486 8.15234 184.697 8.43359C184.908 8.71094 185.064 9.03906 185.166 9.41797C185.268 9.79297 185.318 10.2031 185.318 10.6484V11.1348H180.584V10.25H184.234V10.168C184.219 9.88672 184.16 9.61328 184.059 9.34766C183.961 9.08203 183.805 8.86328 183.59 8.69141C183.375 8.51953 183.082 8.43359 182.711 8.43359C182.465 8.43359 182.238 8.48633 182.031 8.5918C181.824 8.69336 181.646 8.8457 181.498 9.04883C181.35 9.25195 181.234 9.5 181.152 9.79297C181.07 10.0859 181.029 10.4238 181.029 10.8066V11.0527C181.029 11.3535 181.07 11.6367 181.152 11.9023C181.238 12.1641 181.361 12.3945 181.521 12.5938C181.686 12.793 181.883 12.9492 182.113 13.0625C182.348 13.1758 182.613 13.2324 182.91 13.2324C183.293 13.2324 183.617 13.1543 183.883 12.998C184.148 12.8418 184.381 12.6328 184.58 12.3711L185.236 12.8926C185.1 13.0996 184.926 13.2969 184.715 13.4844C184.504 13.6719 184.244 13.8242 183.936 13.9414C183.631 14.0586 183.27 14.1172 182.852 14.1172ZM188.43 13.0215L190.164 7.66016H191.271L188.992 14H188.266L188.43 13.0215ZM186.982 7.66016L188.77 13.0508L188.893 14H188.166L185.869 7.66016H186.982ZM193.492 7.66016V14H192.402V7.66016H193.492ZM192.32 5.97852C192.32 5.80273 192.373 5.6543 192.479 5.5332C192.588 5.41211 192.748 5.35156 192.959 5.35156C193.166 5.35156 193.324 5.41211 193.434 5.5332C193.547 5.6543 193.604 5.80273 193.604 5.97852C193.604 6.14648 193.547 6.29102 193.434 6.41211C193.324 6.5293 193.166 6.58789 192.959 6.58789C192.748 6.58789 192.588 6.5293 192.479 6.41211C192.373 6.29102 192.32 6.14648 192.32 5.97852ZM197.863 14.1172C197.422 14.1172 197.021 14.043 196.662 13.8945C196.307 13.7422 196 13.5293 195.742 13.2559C195.488 12.9824 195.293 12.6582 195.156 12.2832C195.02 11.9082 194.951 11.498 194.951 11.0527V10.8066C194.951 10.291 195.027 9.83203 195.18 9.42969C195.332 9.02344 195.539 8.67969 195.801 8.39844C196.062 8.11719 196.359 7.9043 196.691 7.75977C197.023 7.61523 197.367 7.54297 197.723 7.54297C198.176 7.54297 198.566 7.62109 198.895 7.77734C199.227 7.93359 199.498 8.15234 199.709 8.43359C199.92 8.71094 200.076 9.03906 200.178 9.41797C200.279 9.79297 200.33 10.2031 200.33 10.6484V11.1348H195.596V10.25H199.246V10.168C199.23 9.88672 199.172 9.61328 199.07 9.34766C198.973 9.08203 198.816 8.86328 198.602 8.69141C198.387 8.51953 198.094 8.43359 197.723 8.43359C197.477 8.43359 197.25 8.48633 197.043 8.5918C196.836 8.69336 196.658 8.8457 196.51 9.04883C196.361 9.25195 196.246 9.5 196.164 9.79297C196.082 10.0859 196.041 10.4238 196.041 10.8066V11.0527C196.041 11.3535 196.082 11.6367 196.164 11.9023C196.25 12.1641 196.373 12.3945 196.533 12.5938C196.697 12.793 196.895 12.9492 197.125 13.0625C197.359 13.1758 197.625 13.2324 197.922 13.2324C198.305 13.2324 198.629 13.1543 198.895 12.998C199.16 12.8418 199.393 12.6328 199.592 12.3711L200.248 12.8926C200.111 13.0996 199.938 13.2969 199.727 13.4844C199.516 13.6719 199.256 13.8242 198.947 13.9414C198.643 14.0586 198.281 14.1172 197.863 14.1172ZM203.201 12.875L204.83 7.66016H205.545L205.404 8.69727L203.746 14H203.049L203.201 12.875ZM202.105 7.66016L203.494 12.9336L203.594 14H202.861L201.021 7.66016H202.105ZM207.104 12.8926L208.428 7.66016H209.506L207.666 14H206.939L207.104 12.8926ZM205.703 7.66016L207.297 12.7871L207.479 14H206.787L205.082 8.68555L204.941 7.66016H205.703ZM211.797 7.66016V14H210.707V7.66016H211.797ZM210.625 5.97852C210.625 5.80273 210.678 5.6543 210.783 5.5332C210.893 5.41211 211.053 5.35156 211.264 5.35156C211.471 5.35156 211.629 5.41211 211.738 5.5332C211.852 5.6543 211.908 5.80273 211.908 5.97852C211.908 6.14648 211.852 6.29102 211.738 6.41211C211.629 6.5293 211.471 6.58789 211.264 6.58789C211.053 6.58789 210.893 6.5293 210.783 6.41211C210.678 6.29102 210.625 6.14648 210.625 5.97852ZM214.621 9.01367V14H213.537V7.66016H214.562L214.621 9.01367ZM214.363 10.5898L213.912 10.5723C213.916 10.1387 213.98 9.73828 214.105 9.37109C214.23 9 214.406 8.67773 214.633 8.4043C214.859 8.13086 215.129 7.91992 215.441 7.77148C215.758 7.61914 216.107 7.54297 216.49 7.54297C216.803 7.54297 217.084 7.58594 217.334 7.67188C217.584 7.75391 217.797 7.88672 217.973 8.07031C218.152 8.25391 218.289 8.49219 218.383 8.78516C218.477 9.07422 218.523 9.42773 218.523 9.8457V14H217.434V9.83398C217.434 9.50195 217.385 9.23633 217.287 9.03711C217.189 8.83398 217.047 8.6875 216.859 8.59766C216.672 8.50391 216.441 8.45703 216.168 8.45703C215.898 8.45703 215.652 8.51367 215.43 8.62695C215.211 8.74023 215.021 8.89648 214.861 9.0957C214.705 9.29492 214.582 9.52344 214.492 9.78125C214.406 10.0352 214.363 10.3047 214.363 10.5898ZM224.277 7.66016H225.262V13.8652C225.262 14.4238 225.148 14.9004 224.922 15.2949C224.695 15.6895 224.379 15.9883 223.973 16.1914C223.57 16.3984 223.105 16.502 222.578 16.502C222.359 16.502 222.102 16.4668 221.805 16.3965C221.512 16.3301 221.223 16.2148 220.938 16.0508C220.656 15.8906 220.42 15.6738 220.229 15.4004L220.797 14.7559C221.062 15.0762 221.34 15.2988 221.629 15.4238C221.922 15.5488 222.211 15.6113 222.496 15.6113C222.84 15.6113 223.137 15.5469 223.387 15.418C223.637 15.2891 223.83 15.0977 223.967 14.8438C224.107 14.5938 224.178 14.2852 224.178 13.918V9.05469L224.277 7.66016ZM219.912 10.9004V10.7773C219.912 10.293 219.969 9.85352 220.082 9.45898C220.199 9.06055 220.365 8.71875 220.58 8.43359C220.799 8.14844 221.062 7.92969 221.371 7.77734C221.68 7.62109 222.027 7.54297 222.414 7.54297C222.812 7.54297 223.16 7.61328 223.457 7.75391C223.758 7.89062 224.012 8.0918 224.219 8.35742C224.43 8.61914 224.596 8.93555 224.717 9.30664C224.838 9.67773 224.922 10.0977 224.969 10.5664V11.1055C224.926 11.5703 224.842 11.9883 224.717 12.3594C224.596 12.7305 224.43 13.0469 224.219 13.3086C224.012 13.5703 223.758 13.7715 223.457 13.9121C223.156 14.0488 222.805 14.1172 222.402 14.1172C222.023 14.1172 221.68 14.0371 221.371 13.877C221.066 13.7168 220.805 13.4922 220.586 13.2031C220.367 12.9141 220.199 12.5742 220.082 12.1836C219.969 11.7891 219.912 11.3613 219.912 10.9004ZM220.996 10.7773V10.9004C220.996 11.2168 221.027 11.5137 221.09 11.791C221.156 12.0684 221.256 12.3125 221.389 12.5234C221.525 12.7344 221.699 12.9004 221.91 13.0215C222.121 13.1387 222.373 13.1973 222.666 13.1973C223.025 13.1973 223.322 13.1211 223.557 12.9688C223.791 12.8164 223.977 12.6152 224.113 12.3652C224.254 12.1152 224.363 11.8438 224.441 11.5508V10.1387C224.398 9.92383 224.332 9.7168 224.242 9.51758C224.156 9.31445 224.043 9.13477 223.902 8.97852C223.766 8.81836 223.596 8.69141 223.393 8.59766C223.189 8.50391 222.951 8.45703 222.678 8.45703C222.381 8.45703 222.125 8.51953 221.91 8.64453C221.699 8.76562 221.525 8.93359 221.389 9.14844C221.256 9.35938 221.156 9.60547 221.09 9.88672C221.027 10.1641 220.996 10.4609 220.996 10.7773Z" fill="white"/>
<path d="M283.141 11.2871H284.266C284.207 11.8262 284.053 12.3086 283.803 12.7344C283.553 13.1602 283.199 13.498 282.742 13.748C282.285 13.9941 281.715 14.1172 281.031 14.1172C280.531 14.1172 280.076 14.0234 279.666 13.8359C279.26 13.6484 278.91 13.3828 278.617 13.0391C278.324 12.6914 278.098 12.2754 277.938 11.791C277.781 11.3027 277.703 10.7598 277.703 10.1621V9.3125C277.703 8.71484 277.781 8.17383 277.938 7.68945C278.098 7.20117 278.326 6.7832 278.623 6.43555C278.924 6.08789 279.285 5.82031 279.707 5.63281C280.129 5.44531 280.604 5.35156 281.131 5.35156C281.775 5.35156 282.32 5.47266 282.766 5.71484C283.211 5.95703 283.557 6.29297 283.803 6.72266C284.053 7.14844 284.207 7.64258 284.266 8.20508H283.141C283.086 7.80664 282.984 7.46484 282.836 7.17969C282.688 6.89062 282.477 6.66797 282.203 6.51172C281.93 6.35547 281.572 6.27734 281.131 6.27734C280.752 6.27734 280.418 6.34961 280.129 6.49414C279.844 6.63867 279.604 6.84375 279.408 7.10938C279.217 7.375 279.072 7.69336 278.975 8.06445C278.877 8.43555 278.828 8.84766 278.828 9.30078V10.1621C278.828 10.5801 278.871 10.9727 278.957 11.3398C279.047 11.707 279.182 12.0293 279.361 12.3066C279.541 12.584 279.77 12.8027 280.047 12.9629C280.324 13.1191 280.652 13.1973 281.031 13.1973C281.512 13.1973 281.895 13.1211 282.18 12.9688C282.465 12.8164 282.68 12.5977 282.824 12.3125C282.973 12.0273 283.078 11.6855 283.141 11.2871ZM287.02 5.46875V14H285.889V5.46875H287.02Z" fill="white"/>
<path d="M342.299 14H340.518L340.529 13.0801H342.299C342.908 13.0801 343.416 12.9531 343.822 12.6992C344.229 12.4414 344.533 12.082 344.736 11.6211C344.943 11.1562 345.047 10.6133 345.047 9.99219V9.4707C345.047 8.98242 344.988 8.54883 344.871 8.16992C344.754 7.78711 344.582 7.46484 344.355 7.20312C344.129 6.9375 343.852 6.73633 343.523 6.59961C343.199 6.46289 342.826 6.39453 342.404 6.39453H340.482V5.46875H342.404C342.963 5.46875 343.473 5.5625 343.934 5.75C344.395 5.93359 344.791 6.20117 345.123 6.55273C345.459 6.90039 345.717 7.32227 345.896 7.81836C346.076 8.31055 346.166 8.86523 346.166 9.48242V9.99219C346.166 10.6094 346.076 11.166 345.896 11.6621C345.717 12.1543 345.457 12.5742 345.117 12.9219C344.781 13.2695 344.375 13.5371 343.898 13.7246C343.426 13.9082 342.893 14 342.299 14ZM341.121 5.46875V14H339.99V5.46875H341.121ZM350.332 14.1172C349.891 14.1172 349.49 14.043 349.131 13.8945C348.775 13.7422 348.469 13.5293 348.211 13.2559C347.957 12.9824 347.762 12.6582 347.625 12.2832C347.488 11.9082 347.42 11.498 347.42 11.0527V10.8066C347.42 10.291 347.496 9.83203 347.648 9.42969C347.801 9.02344 348.008 8.67969 348.27 8.39844C348.531 8.11719 348.828 7.9043 349.16 7.75977C349.492 7.61523 349.836 7.54297 350.191 7.54297C350.645 7.54297 351.035 7.62109 351.363 7.77734C351.695 7.93359 351.967 8.15234 352.178 8.43359C352.389 8.71094 352.545 9.03906 352.646 9.41797C352.748 9.79297 352.799 10.2031 352.799 10.6484V11.1348H348.064V10.25H351.715V10.168C351.699 9.88672 351.641 9.61328 351.539 9.34766C351.441 9.08203 351.285 8.86328 351.07 8.69141C350.855 8.51953 350.562 8.43359 350.191 8.43359C349.945 8.43359 349.719 8.48633 349.512 8.5918C349.305 8.69336 349.127 8.8457 348.979 9.04883C348.83 9.25195 348.715 9.5 348.633 9.79297C348.551 10.0859 348.51 10.4238 348.51 10.8066V11.0527C348.51 11.3535 348.551 11.6367 348.633 11.9023C348.719 12.1641 348.842 12.3945 349.002 12.5938C349.166 12.793 349.363 12.9492 349.594 13.0625C349.828 13.1758 350.094 13.2324 350.391 13.2324C350.773 13.2324 351.098 13.1543 351.363 12.998C351.629 12.8418 351.861 12.6328 352.061 12.3711L352.717 12.8926C352.58 13.0996 352.406 13.2969 352.195 13.4844C351.984 13.6719 351.725 13.8242 351.416 13.9414C351.111 14.0586 350.75 14.1172 350.332 14.1172ZM355.148 8.87891V16.4375H354.059V7.66016H355.055L355.148 8.87891ZM359.42 10.7773V10.9004C359.42 11.3613 359.365 11.7891 359.256 12.1836C359.146 12.5742 358.986 12.9141 358.775 13.2031C358.568 13.4922 358.312 13.7168 358.008 13.877C357.703 14.0371 357.354 14.1172 356.959 14.1172C356.557 14.1172 356.201 14.0508 355.893 13.918C355.584 13.7852 355.322 13.5918 355.107 13.3379C354.893 13.084 354.721 12.7793 354.592 12.4238C354.467 12.0684 354.381 11.668 354.334 11.2227V10.5664C354.381 10.0977 354.469 9.67773 354.598 9.30664C354.727 8.93555 354.896 8.61914 355.107 8.35742C355.322 8.0918 355.582 7.89062 355.887 7.75391C356.191 7.61328 356.543 7.54297 356.941 7.54297C357.34 7.54297 357.693 7.62109 358.002 7.77734C358.311 7.92969 358.57 8.14844 358.781 8.43359C358.992 8.71875 359.15 9.06055 359.256 9.45898C359.365 9.85352 359.42 10.293 359.42 10.7773ZM358.33 10.9004V10.7773C358.33 10.4609 358.297 10.1641 358.23 9.88672C358.164 9.60547 358.061 9.35938 357.92 9.14844C357.783 8.93359 357.607 8.76562 357.393 8.64453C357.178 8.51953 356.922 8.45703 356.625 8.45703C356.352 8.45703 356.113 8.50391 355.91 8.59766C355.711 8.69141 355.541 8.81836 355.4 8.97852C355.26 9.13477 355.145 9.31445 355.055 9.51758C354.969 9.7168 354.904 9.92383 354.861 10.1387V11.6562C354.939 11.9297 355.049 12.1875 355.189 12.4297C355.33 12.668 355.518 12.8613 355.752 13.0098C355.986 13.1543 356.281 13.2266 356.637 13.2266C356.93 13.2266 357.182 13.166 357.393 13.0449C357.607 12.9199 357.783 12.75 357.92 12.5352C358.061 12.3203 358.164 12.0742 358.23 11.7969C358.297 11.5156 358.33 11.2168 358.33 10.9004ZM361.98 5V14H360.891V5H361.98ZM363.434 10.9004V10.7656C363.434 10.3086 363.5 9.88477 363.633 9.49414C363.766 9.09961 363.957 8.75781 364.207 8.46875C364.457 8.17578 364.76 7.94922 365.115 7.78906C365.471 7.625 365.869 7.54297 366.311 7.54297C366.756 7.54297 367.156 7.625 367.512 7.78906C367.871 7.94922 368.176 8.17578 368.426 8.46875C368.68 8.75781 368.873 9.09961 369.006 9.49414C369.139 9.88477 369.205 10.3086 369.205 10.7656V10.9004C369.205 11.3574 369.139 11.7812 369.006 12.1719C368.873 12.5625 368.68 12.9043 368.426 13.1973C368.176 13.4863 367.873 13.7129 367.518 13.877C367.166 14.0371 366.768 14.1172 366.322 14.1172C365.877 14.1172 365.477 14.0371 365.121 13.877C364.766 13.7129 364.461 13.4863 364.207 13.1973C363.957 12.9043 363.766 12.5625 363.633 12.1719C363.5 11.7812 363.434 11.3574 363.434 10.9004ZM364.518 10.7656V10.9004C364.518 11.2168 364.555 11.5156 364.629 11.7969C364.703 12.0742 364.814 12.3203 364.963 12.5352C365.115 12.75 365.305 12.9199 365.531 13.0449C365.758 13.166 366.021 13.2266 366.322 13.2266C366.619 13.2266 366.879 13.166 367.102 13.0449C367.328 12.9199 367.516 12.75 367.664 12.5352C367.812 12.3203 367.924 12.0742 367.998 11.7969C368.076 11.5156 368.115 11.2168 368.115 10.9004V10.7656C368.115 10.4531 368.076 10.1582 367.998 9.88086C367.924 9.59961 367.811 9.35156 367.658 9.13672C367.51 8.91797 367.322 8.74609 367.096 8.62109C366.873 8.49609 366.611 8.43359 366.311 8.43359C366.014 8.43359 365.752 8.49609 365.525 8.62109C365.303 8.74609 365.115 8.91797 364.963 9.13672C364.814 9.35156 364.703 9.59961 364.629 9.88086C364.555 10.1582 364.518 10.4531 364.518 10.7656ZM372.252 13.3438L374.016 7.66016H375.176L372.633 14.9785C372.574 15.1348 372.496 15.3027 372.398 15.4824C372.305 15.666 372.184 15.8398 372.035 16.0039C371.887 16.168 371.707 16.3008 371.496 16.4023C371.289 16.5078 371.041 16.5605 370.752 16.5605C370.666 16.5605 370.557 16.5488 370.424 16.5254C370.291 16.502 370.197 16.4824 370.143 16.4668L370.137 15.5879C370.168 15.5918 370.217 15.5957 370.283 15.5996C370.354 15.6074 370.402 15.6113 370.43 15.6113C370.676 15.6113 370.885 15.5781 371.057 15.5117C371.229 15.4492 371.373 15.3418 371.49 15.1895C371.611 15.041 371.715 14.8359 371.801 14.5742L372.252 13.3438ZM370.957 7.66016L372.604 12.582L372.885 13.7246L372.105 14.123L369.773 7.66016H370.957ZM377.332 7.66016V14H376.242V7.66016H377.332ZM376.16 5.97852C376.16 5.80273 376.213 5.6543 376.318 5.5332C376.428 5.41211 376.588 5.35156 376.799 5.35156C377.006 5.35156 377.164 5.41211 377.273 5.5332C377.387 5.6543 377.443 5.80273 377.443 5.97852C377.443 6.14648 377.387 6.29102 377.273 6.41211C377.164 6.5293 377.006 6.58789 376.799 6.58789C376.588 6.58789 376.428 6.5293 376.318 6.41211C376.213 6.29102 376.16 6.14648 376.16 5.97852ZM380.156 9.01367V14H379.072V7.66016H380.098L380.156 9.01367ZM379.898 10.5898L379.447 10.5723C379.451 10.1387 379.516 9.73828 379.641 9.37109C379.766 9 379.941 8.67773 380.168 8.4043C380.395 8.13086 380.664 7.91992 380.977 7.77148C381.293 7.61914 381.643 7.54297 382.025 7.54297C382.338 7.54297 382.619 7.58594 382.869 7.67188C383.119 7.75391 383.332 7.88672 383.508 8.07031C383.688 8.25391 383.824 8.49219 383.918 8.78516C384.012 9.07422 384.059 9.42773 384.059 9.8457V14H382.969V9.83398C382.969 9.50195 382.92 9.23633 382.822 9.03711C382.725 8.83398 382.582 8.6875 382.395 8.59766C382.207 8.50391 381.977 8.45703 381.703 8.45703C381.434 8.45703 381.188 8.51367 380.965 8.62695C380.746 8.74023 380.557 8.89648 380.396 9.0957C380.24 9.29492 380.117 9.52344 380.027 9.78125C379.941 10.0352 379.898 10.3047 379.898 10.5898ZM389.812 7.66016H390.797V13.8652C390.797 14.4238 390.684 14.9004 390.457 15.2949C390.23 15.6895 389.914 15.9883 389.508 16.1914C389.105 16.3984 388.641 16.502 388.113 16.502C387.895 16.502 387.637 16.4668 387.34 16.3965C387.047 16.3301 386.758 16.2148 386.473 16.0508C386.191 15.8906 385.955 15.6738 385.764 15.4004L386.332 14.7559C386.598 15.0762 386.875 15.2988 387.164 15.4238C387.457 15.5488 387.746 15.6113 388.031 15.6113C388.375 15.6113 388.672 15.5469 388.922 15.418C389.172 15.2891 389.365 15.0977 389.502 14.8438C389.643 14.5938 389.713 14.2852 389.713 13.918V9.05469L389.812 7.66016ZM385.447 10.9004V10.7773C385.447 10.293 385.504 9.85352 385.617 9.45898C385.734 9.06055 385.9 8.71875 386.115 8.43359C386.334 8.14844 386.598 7.92969 386.906 7.77734C387.215 7.62109 387.562 7.54297 387.949 7.54297C388.348 7.54297 388.695 7.61328 388.992 7.75391C389.293 7.89062 389.547 8.0918 389.754 8.35742C389.965 8.61914 390.131 8.93555 390.252 9.30664C390.373 9.67773 390.457 10.0977 390.504 10.5664V11.1055C390.461 11.5703 390.377 11.9883 390.252 12.3594C390.131 12.7305 389.965 13.0469 389.754 13.3086C389.547 13.5703 389.293 13.7715 388.992 13.9121C388.691 14.0488 388.34 14.1172 387.938 14.1172C387.559 14.1172 387.215 14.0371 386.906 13.877C386.602 13.7168 386.34 13.4922 386.121 13.2031C385.902 12.9141 385.734 12.5742 385.617 12.1836C385.504 11.7891 385.447 11.3613 385.447 10.9004ZM386.531 10.7773V10.9004C386.531 11.2168 386.562 11.5137 386.625 11.791C386.691 12.0684 386.791 12.3125 386.924 12.5234C387.061 12.7344 387.234 12.9004 387.445 13.0215C387.656 13.1387 387.908 13.1973 388.201 13.1973C388.561 13.1973 388.857 13.1211 389.092 12.9688C389.326 12.8164 389.512 12.6152 389.648 12.3652C389.789 12.1152 389.898 11.8438 389.977 11.5508V10.1387C389.934 9.92383 389.867 9.7168 389.777 9.51758C389.691 9.31445 389.578 9.13477 389.438 8.97852C389.301 8.81836 389.131 8.69141 388.928 8.59766C388.725 8.50391 388.486 8.45703 388.213 8.45703C387.916 8.45703 387.66 8.51953 387.445 8.64453C387.234 8.76562 387.061 8.93359 386.924 9.14844C386.791 9.35938 386.691 9.60547 386.625 9.88672C386.562 10.1641 386.531 10.4609 386.531 10.7773Z" fill="white"/>
<path d="M81 10L72 15.1962L72 4.80385L81 10Z" fill="#C4C4C4"/>
<path d="M164 10L155 15.1962L155 4.80385L164 10Z" fill="#C4C4C4"/>
<path d="M247 10L238 15.1962L238 4.80385L247 10Z" fill="#C4C4C4"/>
<path d="M330 10L321 15.1962L321 4.80385L330 10Z" fill="#C4C4C4"/>
</svg>
